<svg width="39" height="38" viewBox="0 0 39 38" fill="none" xmlns="http://www.w3.org/2000/svg">
<g clip-path="url(#clip0_2252_2696)">
<path d="M23.0625 33.2498H4.0625C2.09125 33.2498 0.5 31.6586 0.5 29.6873V5.65234C0.5 3.68109 2.09125 2.08984 4.0625 2.08984H30.1875C32.1588 2.08984 33.75 3.68109 33.75 5.65234V22.8711C33.75 23.5361 33.2275 24.0586 32.5625 24.0586C31.8975 24.0586 31.375 23.5361 31.375 22.8711V5.65234C31.375 4.98734 30.8525 4.46484 30.1875 4.46484H4.0625C3.3975 4.46484 2.875 4.98734 2.875 5.65234V29.6873C2.875 30.3523 3.3975 30.8748 4.0625 30.8748H23.0625C23.7275 30.8748 24.25 31.3973 24.25 32.0623C24.25 32.7273 23.7275 33.2498 23.0625 33.2498Z" fill="#578BF2"/>
<path d="M10 8.5975C9.335 8.5975 8.8125 8.075 8.8125 7.41V1.1875C8.8125 0.5225 9.335 0 10 0C10.665 0 11.1875 0.5225 11.1875 1.1875V7.41C11.1875 8.075 10.665 8.5975 10 8.5975ZM24.535 8.5975C23.87 8.5975 23.3475 8.075 23.3475 7.41V1.1875C23.3475 0.5225 23.87 0 24.535 0C25.2 0 25.7225 0.5225 25.7225 1.1875V7.41C25.7225 8.075 25.2 8.5975 24.535 8.5975ZM32.5625 14.25H1.6875C1.0225 14.25 0.5 13.7275 0.5 13.0625C0.5 12.3975 1.0225 11.875 1.6875 11.875H32.5625C33.2275 11.875 33.75 12.3975 33.75 13.0625C33.75 13.7275 33.2275 14.25 32.5625 14.25ZM30.1875 38C25.6038 38 21.875 34.2713 21.875 29.6875C21.875 25.1038 25.6038 21.375 30.1875 21.375C34.7713 21.375 38.5 25.1038 38.5 29.6875C38.5 34.2713 34.7713 38 30.1875 38ZM30.1875 23.75C28.6128 23.75 27.1026 24.3756 25.9891 25.4891C24.8756 26.6026 24.25 28.1128 24.25 29.6875C24.25 31.2622 24.8756 32.7724 25.9891 33.8859C27.1026 34.9994 28.6128 35.625 30.1875 35.625C31.7622 35.625 33.2724 34.9994 34.3859 33.8859C35.4994 32.7724 36.125 31.2622 36.125 29.6875C36.125 28.1128 35.4994 26.6026 34.3859 25.4891C33.2724 24.3756 31.7622 23.75 30.1875 23.75Z" fill="#578BF2"/>
<path d="M32.5625 33.25C32.4068 33.2519 32.2523 33.2212 32.1092 33.1598C31.966 33.0985 31.8373 33.0078 31.7312 32.8938L29.3562 30.5188C29.1346 30.2981 29.007 30.0002 29 29.6875V26.125C29 25.46 29.5225 24.9375 30.1875 24.9375C30.8525 24.9375 31.375 25.46 31.375 26.125V29.1887L33.3938 31.2075C33.8688 31.6825 33.8688 32.4188 33.3938 32.8938C33.1563 33.1313 32.8475 33.25 32.5625 33.25Z" fill="#578BF2"/>
</g>
<defs>
<clipPath id="clip0_2252_2696">
<rect width="38" height="38" fill="white" transform="translate(0.5)"/>
</clipPath>
</defs>
</svg>
