<svg width="32" height="32" viewBox="0 0 32 32" fill="none" xmlns="http://www.w3.org/2000/svg">
<path d="M25.5 4H6.5C5.57255 4.00264 4.68385 4.37223 4.02804 5.02804C3.37223 5.68385 3.00264 6.57255 3 7.5V19.5C3.00264 20.4274 3.37223 21.3162 4.02804 21.972C4.68385 22.6278 5.57255 22.9974 6.5 23H9V28L14.8575 23.1162C14.9474 23.0411 15.0609 23 15.1781 23H25.5C26.4274 22.9974 27.3162 22.6278 27.972 21.972C28.6278 21.3162 28.9974 20.4274 29 19.5V7.5C28.9974 6.57255 28.6278 5.68385 27.972 5.02804C27.3162 4.37223 26.4274 4.00264 25.5 4V4Z" stroke="#0E1F40" stroke-width="2" stroke-linejoin="round"/>
<path d="M10 15.5C11.1046 15.5 12 14.6046 12 13.5C12 12.3954 11.1046 11.5 10 11.5C8.89543 11.5 8 12.3954 8 13.5C8 14.6046 8.89543 15.5 10 15.5Z" fill="#0E1F40"/>
<path d="M16 15.5C17.1046 15.5 18 14.6046 18 13.5C18 12.3954 17.1046 11.5 16 11.5C14.8954 11.5 14 12.3954 14 13.5C14 14.6046 14.8954 15.5 16 15.5Z" fill="#0E1F40"/>
<path d="M22 15.5C23.1046 15.5 24 14.6046 24 13.5C24 12.3954 23.1046 11.5 22 11.5C20.8954 11.5 20 12.3954 20 13.5C20 14.6046 20.8954 15.5 22 15.5Z" fill="#0E1F40"/>
</svg>
