<svg width="24" height="24" viewBox="0 0 24 24" fill="none" xmlns="http://www.w3.org/2000/svg">
<path d="M12.15 6.3998C12.15 6.14785 12.05 5.90621 11.8718 5.72805C11.6936 5.54989 11.452 5.4498 11.2 5.4498C10.9481 5.4498 10.7065 5.54989 10.5283 5.72805C10.3501 5.90621 10.25 6.14785 10.25 6.3998V12.7998C10.25 13.0518 10.3501 13.2934 10.5283 13.4716C10.7065 13.6497 10.9481 13.7498 11.2 13.7498H16C16.252 13.7498 16.4936 13.6497 16.6718 13.4716C16.85 13.2934 16.95 13.0518 16.95 12.7998C16.95 12.5478 16.85 12.3062 16.6718 12.1281C16.4936 11.9499 16.252 11.8498 16 11.8498H12.15V6.3998ZM5.60005 0.649805C4.28723 0.649805 3.02818 1.17132 2.09987 2.09963C1.17157 3.02793 0.650049 4.28698 0.650049 5.5998V18.3998C0.650049 19.7126 1.17157 20.9717 2.09987 21.9C3.02818 22.8283 4.28723 23.3498 5.60005 23.3498H18.4C19.7129 23.3498 20.9719 22.8283 21.9002 21.9C22.8285 20.9717 23.35 19.7126 23.35 18.3998V5.5998C23.35 4.28698 22.8285 3.02793 21.9002 2.09963C20.9719 1.17132 19.7129 0.649805 18.4 0.649805H5.60005ZM2.55005 5.5998C2.55005 4.79089 2.87139 4.01511 3.44337 3.44313C4.01536 2.87114 4.79114 2.5498 5.60005 2.5498H18.4C19.209 2.5498 19.9847 2.87114 20.5567 3.44313C21.1287 4.01512 21.4501 4.79089 21.4501 5.5998V18.3998C21.4501 19.2087 21.1287 19.9845 20.5567 20.5565C19.9847 21.1285 19.209 21.4498 18.4 21.4498H5.60005C4.79114 21.4498 4.01536 21.1285 3.44337 20.5565C2.87139 19.9845 2.55005 19.2087 2.55005 18.3998V5.5998Z" fill="#578BF2" stroke="#578BF2" stroke-width="0.3"/>
</svg>
