<svg width="32" height="33" viewBox="0 0 32 33" fill="none" xmlns="http://www.w3.org/2000/svg">
<g clip-path="url(#clip0_2141_2219)">
<path opacity="0.2" d="M10 16.4981C10 14.5202 10.5865 12.5868 11.6853 10.9423C12.7841 9.29786 14.3459 8.01613 16.1732 7.25926C18.0005 6.50238 20.0111 6.30435 21.9509 6.6902C23.8907 7.07605 25.6726 8.02846 27.0711 9.42698C28.4696 10.8255 29.422 12.6073 29.8079 14.5471C30.1937 16.487 29.9957 18.4976 29.2388 20.3249C28.482 22.1521 27.2002 23.7139 25.5557 24.8127C23.9112 25.9116 21.9778 26.4981 20 26.4981H9.00003C8.00733 26.4971 7.02618 26.285 6.12172 25.8758C5.21725 25.4667 4.41016 24.8698 3.754 24.1249C3.09785 23.38 2.60764 22.504 2.31591 21.5551C2.02419 20.6063 1.93762 19.6062 2.06196 18.6213C2.1863 17.6364 2.51869 16.6892 3.03708 15.8426C3.55548 14.996 4.24801 14.2694 5.06871 13.7109C5.88942 13.1524 6.81952 12.7749 7.79729 12.6033C8.77506 12.4318 9.77814 12.4702 10.7399 12.716" fill="#F4F4F4"/>
<path d="M11.9993 26.498H8.9993C8.0066 26.4971 7.02545 26.285 6.12099 25.8758C5.21652 25.4667 4.40943 24.8698 3.75327 24.1249C3.09711 23.38 2.60691 22.504 2.31518 21.5551C2.02346 20.6063 1.93689 19.6062 2.06123 18.6213C2.18556 17.6364 2.51796 16.6892 3.03635 15.8426C3.55474 14.996 4.24727 14.2694 5.06798 13.7109C5.88868 13.1524 6.81879 12.7749 7.79656 12.6033C8.77433 12.4318 9.77741 12.4702 10.7392 12.716" stroke="#F4F4F4" stroke-width="2" stroke-linecap="round" stroke-linejoin="round"/>
<path d="M9.99902 16.498C9.99918 14.9136 10.3758 13.3518 11.098 11.9415C11.8201 10.5312 12.867 9.31262 14.1524 8.38625C15.4378 7.45988 16.925 6.85221 18.4914 6.61333C20.0577 6.37445 21.6584 6.51118 23.1615 7.01227C24.6647 7.51335 26.0272 8.36445 27.1369 9.49541C28.2466 10.6264 29.0717 12.0048 29.5441 13.5172C30.0166 15.0296 30.1229 16.6326 29.8543 18.1941C29.5857 19.7557 28.9499 21.231 27.9993 22.4986" stroke="#F4F4F4" stroke-width="2" stroke-linecap="round" stroke-linejoin="round"/>
<path d="M14.7566 20.7408L18.9992 16.498L23.2418 20.7408" stroke="#F4F4F4" stroke-width="2" stroke-linecap="round" stroke-linejoin="round"/>
<path d="M18.999 26.498V16.498" stroke="#F4F4F4" stroke-width="2" stroke-linecap="round" stroke-linejoin="round"/>
</g>
<defs>
<clipPath id="clip0_2141_2219">
<rect width="32" height="32" fill="white" transform="translate(0 0.5)"/>
</clipPath>
</defs>
</svg>
