<svg width="109" height="20" viewBox="0 0 109 20" fill="none" xmlns="http://www.w3.org/2000/svg">
<path d="M21.8937 5.56903C17.9529 5.56903 14.8738 8.57941 14.8738 12.6094C14.8738 16.6394 17.8751 19.624 21.8937 19.624C25.9122 19.624 28.9657 16.5879 28.9657 12.5836C28.9657 8.60515 25.9644 5.56903 21.8937 5.56903ZM21.9203 16.7197C19.6761 16.7197 18.0317 14.9658 18.0317 12.6104C18.0317 10.2283 19.6495 8.47536 21.8937 8.47536C24.1644 8.47536 25.8078 10.255 25.8078 12.6104C25.8078 14.9658 24.1644 16.7197 21.9203 16.7197ZM29.8264 8.63191H31.7838V19.3634H34.9151V5.83064H29.8264V8.63191ZM6.99329 8.47435C8.63773 8.47435 9.94243 9.49499 10.4377 11.013H13.7522C13.1516 7.76784 10.4899 5.56903 7.01987 5.56903C3.07913 5.56903 0 8.57941 0 12.6104C0 16.6414 3.00134 19.625 7.01987 19.625C10.4121 19.625 13.126 17.4262 13.7266 14.1542H10.4377C9.96805 15.6723 8.66332 16.7197 7.0189 16.7197C4.74819 16.7197 3.15691 14.9658 3.15691 12.6104C3.15791 10.2283 4.72357 8.47435 6.99329 8.47435ZM89.3234 11.3014L87.0271 10.9615C85.9313 10.805 85.1484 10.4383 85.1484 9.57427C85.1484 8.63191 86.1666 8.16122 87.5491 8.16122C89.0627 8.16122 90.0285 8.81524 90.2371 9.88838H93.2643C92.9246 7.16636 90.8369 5.57001 87.6278 5.57001C84.3133 5.57001 82.1215 7.27141 82.1215 9.6793C82.1215 11.9822 83.557 13.3179 86.453 13.7361L88.7493 14.0759C89.872 14.2325 90.4981 14.6784 90.4981 15.5157C90.4981 16.5889 89.4024 17.0338 87.8888 17.0338C86.0355 17.0338 84.9918 16.2747 84.8353 15.1233H81.756C82.0437 17.767 84.1047 19.625 87.8622 19.625C91.2811 19.625 93.5507 18.0544 93.5507 15.3582C93.5507 12.9503 91.9073 11.6938 89.3234 11.3014ZM33.3494 0.255799C32.2013 0.255799 31.3399 1.09311 31.3399 2.24454C31.3399 3.39597 32.2004 4.23328 33.3494 4.23328C34.4976 4.23328 35.3593 3.39597 35.3593 2.24454C35.3593 1.09311 34.4976 0.255799 33.3494 0.255799ZM79.3032 10.4641C79.3032 7.53299 77.529 5.57001 73.7712 5.57001C70.2223 5.57001 68.2391 7.37644 67.8473 10.151H70.9529C71.1095 9.07782 71.9445 8.18798 73.7191 8.18798C75.3114 8.18798 76.0941 8.89449 76.0941 9.75858C76.0941 10.8842 74.6583 11.1716 72.884 11.3549C70.4833 11.6165 67.5085 12.4538 67.5085 15.595C67.5085 18.0297 69.3095 19.5992 72.1801 19.5992C74.424 19.5992 75.8331 18.6569 76.5383 17.1646C76.6427 18.4993 77.6343 19.3634 79.0177 19.3634H80.8444V16.5631H79.3041V10.4641H79.3032ZM76.224 13.8669C76.224 15.6733 74.6583 17.008 72.7529 17.008C71.5785 17.008 70.5869 16.5106 70.5869 15.4642C70.5869 14.1294 72.1789 13.7628 73.6404 13.6063C75.0495 13.4755 75.8322 13.1613 76.224 12.5589V13.8669ZM59.6015 5.56903C57.8526 5.56903 56.3914 6.3023 55.3478 7.53201V0.125H52.2164V19.3634H55.2954V17.5837C56.3391 18.866 57.8272 19.625 59.6015 19.625C63.359 19.625 66.2039 16.6414 66.2039 12.6104C66.2039 8.57941 63.3069 5.56903 59.6015 5.56903ZM59.1319 16.7197C56.8877 16.7197 55.2433 14.9658 55.2433 12.6104C55.2433 10.255 56.9134 8.47536 59.1573 8.47536C61.4281 8.47536 63.0192 10.2293 63.0192 12.6104C63.0192 14.9658 61.3758 16.7197 59.1319 16.7197ZM44.7266 5.56903C42.6914 5.56903 41.36 6.40635 40.5774 7.58451V5.83064H37.4715V19.3624H40.6028V12.0079C40.6028 9.9399 41.9075 8.47435 43.8386 8.47435C45.6395 8.47435 46.761 9.7566 46.761 11.6155V19.3634H49.8923V11.3807C49.8935 7.97692 48.1456 5.56903 44.7266 5.56903ZM108.478 12.1655C108.478 8.29203 105.659 5.57001 101.875 5.57001C97.8568 5.57001 94.9078 8.60616 94.9078 12.6104C94.9078 16.8247 98.0655 19.625 101.928 19.625C105.19 19.625 107.747 17.6878 108.399 14.94H105.137C104.667 16.1439 103.519 16.8247 101.979 16.8247C99.969 16.8247 98.4554 15.5682 98.1166 13.3694H108.477V12.1655H108.478ZM98.2998 11.1181C98.7964 9.23339 100.205 8.3178 101.823 8.3178C103.598 8.3178 104.955 9.33841 105.268 11.1181H98.2998Z" fill="#CACACA"/>
</svg>
