<svg width="49" height="49" viewBox="0 0 49 49" fill="none" xmlns="http://www.w3.org/2000/svg">
<path d="M16.8438 39.8125V45.9375M7.65625 3.0625H26.0312C26.8435 3.0625 27.6224 3.38516 28.1968 3.95949C28.7711 4.53382 29.0938 5.31277 29.0938 6.125V45.5547C29.0938 45.6562 29.0534 45.7536 28.9816 45.8254C28.9098 45.8972 28.8125 45.9375 28.7109 45.9375H4.59375V6.125C4.59375 5.31277 4.91641 4.53382 5.49074 3.95949C6.06507 3.38516 6.84402 3.0625 7.65625 3.0625ZM30.625 18.375H41.3438C42.156 18.375 42.9349 18.6977 43.5093 19.272C44.0836 19.8463 44.4062 20.6253 44.4062 21.4375V45.9375H29.0938V19.9062C29.0938 19.5001 29.2551 19.1107 29.5422 18.8235C29.8294 18.5363 30.2189 18.375 30.625 18.375Z" stroke="#A1A29A" stroke-width="2" stroke-linecap="round" stroke-linejoin="round"/>
<path d="M9.38656 41.3313C9.06943 41.3728 8.74727 41.3139 8.4653 41.163C8.18333 41.012 7.9557 40.7766 7.81437 40.4897C7.67303 40.2028 7.62508 39.8788 7.67725 39.5632C7.72941 39.2477 7.87908 38.9564 8.10523 38.7302C8.33139 38.5041 8.62268 38.3544 8.93823 38.3022C9.25378 38.2501 9.57775 38.298 9.86466 38.4394C10.1516 38.5807 10.387 38.8083 10.538 39.0903C10.6889 39.3723 10.7478 39.6944 10.7063 40.0116C10.6625 40.3462 10.5094 40.6571 10.2707 40.8957C10.0321 41.1344 9.72124 41.2875 9.38656 41.3313ZM9.38656 33.6751C9.06943 33.7165 8.74727 33.6577 8.4653 33.5067C8.18333 33.3558 7.9557 33.1203 7.81437 32.8334C7.67303 32.5465 7.62508 32.2225 7.67725 31.907C7.72941 31.5914 7.87908 31.3001 8.10523 31.074C8.33139 30.8478 8.62268 30.6982 8.93823 30.646C9.25378 30.5938 9.57775 30.6418 9.86466 30.7831C10.1516 30.9244 10.387 31.1521 10.538 31.434C10.6889 31.716 10.7478 32.0382 10.7063 32.3553C10.6625 32.69 10.5094 33.0008 10.2707 33.2395C10.0321 33.4782 9.72124 33.6313 9.38656 33.6751ZM9.38656 26.0188C9.06943 26.0603 8.74727 26.0014 8.4653 25.8505C8.18333 25.6995 7.9557 25.4641 7.81437 25.1772C7.67303 24.8902 7.62508 24.5663 7.67725 24.2507C7.72941 23.9352 7.87908 23.6439 8.10523 23.4177C8.33139 23.1916 8.62268 23.0419 8.93823 22.9897C9.25378 22.9376 9.57775 22.9855 9.86466 23.1269C10.1516 23.2682 10.387 23.4958 10.538 23.7778C10.6889 24.0598 10.7478 24.3819 10.7063 24.6991C10.6625 25.0337 10.5094 25.3446 10.2707 25.5832C10.0321 25.8219 9.72124 25.975 9.38656 26.0188ZM9.38656 18.3626C9.06943 18.404 8.74727 18.3452 8.4653 18.1942C8.18333 18.0433 7.9557 17.8078 7.81437 17.5209C7.67303 17.234 7.62508 16.91 7.67725 16.5945C7.72941 16.2789 7.87908 15.9876 8.10523 15.7615C8.33139 15.5353 8.62268 15.3857 8.93823 15.3335C9.25378 15.2813 9.57775 15.3293 9.86466 15.4706C10.1516 15.612 10.387 15.8396 10.538 16.1216C10.6889 16.4035 10.7478 16.7257 10.7063 17.0428C10.6625 17.3775 10.5094 17.6883 10.2707 17.927C10.0321 18.1657 9.72124 18.3188 9.38656 18.3626ZM9.38656 10.7063C9.06943 10.7478 8.74727 10.6889 8.4653 10.538C8.18333 10.387 7.9557 10.1516 7.81437 9.86466C7.67303 9.57775 7.62508 9.25378 7.67725 8.93823C7.72941 8.62268 7.87908 8.33139 8.10523 8.10523C8.33139 7.87908 8.62268 7.72941 8.93823 7.67725C9.25378 7.62508 9.57775 7.67303 9.86466 7.81437C10.1516 7.9557 10.387 8.18333 10.538 8.4653C10.6889 8.74727 10.7478 9.06943 10.7063 9.38656C10.6625 9.72124 10.5094 10.0321 10.2707 10.2707C10.0321 10.5094 9.72124 10.6625 9.38656 10.7063ZM17.0428 33.6751C16.7257 33.7165 16.4035 33.6577 16.1216 33.5067C15.8396 33.3558 15.612 33.1203 15.4706 32.8334C15.3293 32.5465 15.2813 32.2225 15.3335 31.907C15.3857 31.5914 15.5353 31.3001 15.7615 31.074C15.9876 30.8478 16.2789 30.6982 16.5945 30.646C16.91 30.5938 17.234 30.6418 17.5209 30.7831C17.8078 30.9244 18.0433 31.1521 18.1942 31.434C18.3452 31.716 18.404 32.0382 18.3626 32.3553C18.3188 32.69 18.1657 33.0008 17.927 33.2395C17.6883 33.4782 17.3775 33.6313 17.0428 33.6751ZM17.0428 26.0188C16.7257 26.0603 16.4035 26.0014 16.1216 25.8505C15.8396 25.6995 15.612 25.4641 15.4706 25.1772C15.3293 24.8902 15.2813 24.5663 15.3335 24.2507C15.3857 23.9352 15.5353 23.6439 15.7615 23.4177C15.9876 23.1916 16.2789 23.0419 16.5945 22.9897C16.91 22.9376 17.234 22.9855 17.5209 23.1269C17.8078 23.2682 18.0433 23.4958 18.1942 23.7778C18.3452 24.0598 18.404 24.3819 18.3626 24.6991C18.3188 25.0337 18.1657 25.3446 17.927 25.5832C17.6883 25.8219 17.3775 25.975 17.0428 26.0188ZM17.0428 18.3626C16.7257 18.404 16.4035 18.3452 16.1216 18.1942C15.8396 18.0433 15.612 17.8078 15.4706 17.5209C15.3293 17.234 15.2813 16.91 15.3335 16.5945C15.3857 16.2789 15.5353 15.9876 15.7615 15.7615C15.9876 15.5353 16.2789 15.3857 16.5945 15.3335C16.91 15.2813 17.234 15.3293 17.5209 15.4706C17.8078 15.612 18.0433 15.8396 18.1942 16.1216C18.3452 16.4035 18.404 16.7257 18.3626 17.0428C18.3188 17.3775 18.1657 17.6883 17.927 17.927C17.6883 18.1657 17.3775 18.3188 17.0428 18.3626ZM17.0428 10.7063C16.7257 10.7478 16.4035 10.6889 16.1216 10.538C15.8396 10.387 15.612 10.1516 15.4706 9.86466C15.3293 9.57775 15.2813 9.25378 15.3335 8.93823C15.3857 8.62268 15.5353 8.33139 15.7615 8.10523C15.9876 7.87908 16.2789 7.72941 16.5945 7.67725C16.91 7.62508 17.234 7.67303 17.5209 7.81437C17.8078 7.9557 18.0433 8.18333 18.1942 8.4653C18.3452 8.74727 18.404 9.06943 18.3626 9.38656C18.3188 9.72124 18.1657 10.0321 17.927 10.2707C17.6883 10.5094 17.3775 10.6625 17.0428 10.7063ZM24.6991 41.3313C24.3819 41.3728 24.0598 41.3139 23.7778 41.163C23.4958 41.012 23.2682 40.7766 23.1269 40.4897C22.9855 40.2028 22.9376 39.8788 22.9897 39.5632C23.0419 39.2477 23.1916 38.9564 23.4177 38.7302C23.6439 38.5041 23.9352 38.3544 24.2507 38.3022C24.5663 38.2501 24.8903 38.298 25.1772 38.4394C25.4641 38.5807 25.6995 38.8083 25.8505 39.0903C26.0014 39.3723 26.0603 39.6944 26.0188 40.0116C25.975 40.3462 25.8219 40.6571 25.5832 40.8957C25.3446 41.1344 25.0337 41.2875 24.6991 41.3313ZM24.6991 33.6751C24.3819 33.7165 24.0598 33.6577 23.7778 33.5067C23.4958 33.3558 23.2682 33.1203 23.1269 32.8334C22.9855 32.5465 22.9376 32.2225 22.9897 31.907C23.0419 31.5914 23.1916 31.3001 23.4177 31.074C23.6439 30.8478 23.9352 30.6982 24.2507 30.646C24.5663 30.5938 24.8903 30.6418 25.1772 30.7831C25.4641 30.9244 25.6995 31.1521 25.8505 31.434C26.0014 31.716 26.0603 32.0382 26.0188 32.3553C25.975 32.69 25.8219 33.0008 25.5832 33.2395C25.3446 33.4782 25.0337 33.6313 24.6991 33.6751ZM24.6991 26.0188C24.3819 26.0603 24.0598 26.0014 23.7778 25.8505C23.4958 25.6995 23.2682 25.4641 23.1269 25.1772C22.9855 24.8902 22.9376 24.5663 22.9897 24.2507C23.0419 23.9352 23.1916 23.6439 23.4177 23.4177C23.6439 23.1916 23.9352 23.0419 24.2507 22.9897C24.5663 22.9376 24.8903 22.9855 25.1772 23.1269C25.4641 23.2682 25.6995 23.4958 25.8505 23.7778C26.0014 24.0598 26.0603 24.3819 26.0188 24.6991C25.975 25.0337 25.8219 25.3446 25.5832 25.5832C25.3446 25.8219 25.0337 25.975 24.6991 26.0188Z" fill="#A1A29A"/>
<path d="M25.5849 17.9276C26.181 17.3315 26.1786 16.3626 25.5795 15.7634C24.9804 15.1643 24.0114 15.1619 23.4153 15.758C22.8192 16.3542 22.8216 17.3231 23.4207 17.9222C24.0198 18.5213 24.9888 18.5237 25.5849 17.9276Z" fill="#A1A29A"/>
<path d="M24.6991 10.7063C24.3819 10.7478 24.0598 10.6889 23.7778 10.538C23.4958 10.387 23.2682 10.1516 23.1269 9.86466C22.9855 9.57775 22.9376 9.25378 22.9897 8.93823C23.0419 8.62268 23.1916 8.33139 23.4177 8.10523C23.6439 7.87908 23.9352 7.72941 24.2507 7.67725C24.5663 7.62508 24.8902 7.67303 25.1772 7.81437C25.4641 7.9557 25.6995 8.18333 25.8505 8.4653C26.0014 8.74727 26.0603 9.06943 26.0188 9.38656C25.975 9.72124 25.8219 10.0321 25.5832 10.2707C25.3446 10.5094 25.0337 10.6625 24.6991 10.7063ZM38.2813 38.2812C37.9784 38.2812 37.6823 38.3711 37.4305 38.5393C37.1787 38.7076 36.9825 38.9467 36.8666 39.2265C36.7507 39.5063 36.7203 39.8142 36.7794 40.1112C36.8385 40.4083 36.9843 40.6811 37.1985 40.8953C37.4126 41.1094 37.6855 41.2552 37.9825 41.3143C38.2796 41.3734 38.5874 41.3431 38.8672 41.2272C39.147 41.1113 39.3862 40.915 39.5544 40.6632C39.7227 40.4114 39.8125 40.1154 39.8125 39.8125C39.8125 39.4064 39.6512 39.0169 39.364 38.7297C39.0768 38.4426 38.6874 38.2812 38.2813 38.2812ZM38.2813 30.625C37.9784 30.625 37.6823 30.7148 37.4305 30.8831C37.1787 31.0513 36.9825 31.2905 36.8666 31.5703C36.7507 31.8501 36.7203 32.158 36.7794 32.455C36.8385 32.752 36.9843 33.0249 37.1985 33.239C37.4126 33.4532 37.6855 33.599 37.9825 33.6581C38.2796 33.7172 38.5874 33.6868 38.8672 33.5709C39.147 33.455 39.3862 33.2588 39.5544 33.007C39.7227 32.7552 39.8125 32.4591 39.8125 32.1562C39.8125 31.7501 39.6512 31.3607 39.364 31.0735C39.0768 30.7863 38.6874 30.625 38.2813 30.625ZM38.2813 22.9688C37.9784 22.9688 37.6823 23.0586 37.4305 23.2268C37.1787 23.3951 36.9825 23.6342 36.8666 23.914C36.7507 24.1938 36.7203 24.5017 36.7794 24.7987C36.8385 25.0958 36.9843 25.3686 37.1985 25.5828C37.4126 25.7969 37.6855 25.9427 37.9825 26.0018C38.2796 26.0609 38.5874 26.0306 38.8672 25.9147C39.147 25.7988 39.3862 25.6025 39.5544 25.3507C39.7227 25.0989 39.8125 24.8029 39.8125 24.5C39.8125 24.0939 39.6512 23.7044 39.364 23.4172C39.0768 23.1301 38.6874 22.9688 38.2813 22.9688ZM32.1563 38.2812C31.8534 38.2812 31.5573 38.3711 31.3055 38.5393C31.0537 38.7076 30.8575 38.9467 30.7416 39.2265C30.6257 39.5063 30.5953 39.8142 30.6544 40.1112C30.7135 40.4083 30.8593 40.6811 31.0735 40.8953C31.2876 41.1094 31.5605 41.2552 31.8575 41.3143C32.1546 41.3734 32.4624 41.3431 32.7422 41.2272C33.022 41.1113 33.2612 40.915 33.4294 40.6632C33.5977 40.4114 33.6875 40.1154 33.6875 39.8125C33.6875 39.4064 33.5262 39.0169 33.239 38.7297C32.9518 38.4426 32.5624 38.2812 32.1563 38.2812ZM32.1563 30.625C31.8534 30.625 31.5573 30.7148 31.3055 30.8831C31.0537 31.0513 30.8575 31.2905 30.7416 31.5703C30.6257 31.8501 30.5953 32.158 30.6544 32.455C30.7135 32.752 30.8593 33.0249 31.0735 33.239C31.2876 33.4532 31.5605 33.599 31.8575 33.6581C32.1546 33.7172 32.4624 33.6868 32.7422 33.5709C33.022 33.455 33.2612 33.2588 33.4294 33.007C33.5977 32.7552 33.6875 32.4591 33.6875 32.1562C33.6875 31.7501 33.5262 31.3607 33.239 31.0735C32.9518 30.7863 32.5624 30.625 32.1563 30.625ZM32.1563 22.9688C31.8534 22.9688 31.5573 23.0586 31.3055 23.2268C31.0537 23.3951 30.8575 23.6342 30.7416 23.914C30.6257 24.1938 30.5953 24.5017 30.6544 24.7987C30.7135 25.0958 30.8593 25.3686 31.0735 25.5828C31.2876 25.7969 31.5605 25.9427 31.8575 26.0018C32.1546 26.0609 32.4624 26.0306 32.7422 25.9147C33.022 25.7988 33.2612 25.6025 33.4294 25.3507C33.5977 25.0989 33.6875 24.8029 33.6875 24.5C33.6875 24.0939 33.5262 23.7044 33.239 23.4172C32.9518 23.1301 32.5624 22.9688 32.1563 22.9688Z" fill="#A1A29A"/>
</svg>
