<svg width="132" height="39" viewBox="0 0 132 39" fill="none" xmlns="http://www.w3.org/2000/svg">
<rect width="132" height="39" fill="#E1E1E1"/>
<path d="M36.4844 11.3859H42.6569C46.5921 11.3859 49.8428 13.6703 49.8428 18.8861V19.9821C49.8428 25.2376 46.8026 27.6012 42.7754 27.6012H36.4844V11.3859ZM39.9326 14.3305V24.6433H42.5779C44.8153 24.6433 46.3157 23.1776 46.3157 19.9161V19.0578C46.3157 15.7962 44.7364 14.3305 42.4595 14.3305H39.9326ZM51.6722 14.489H54.436L54.8835 17.5392C55.41 15.4661 56.7524 14.3569 59.1872 14.3569H60.0427V17.8561H58.6213C55.818 17.8561 55.1336 18.8333 55.1336 21.6063V27.6408H51.7249V14.489H51.6722ZM60.727 21.329V20.9592C60.727 16.5621 63.5303 14.1588 67.347 14.1588C71.2427 14.1588 73.967 16.5621 73.967 20.9592V21.329C73.967 25.6469 71.3217 27.9709 67.347 27.9709C63.1223 27.9313 60.727 25.6601 60.727 21.329ZM70.4794 21.2894V20.9592C70.4794 18.5164 69.2554 17.0507 67.3076 17.0507C65.3992 17.0507 64.1357 18.3975 64.1357 20.9592V21.2894C64.1357 23.653 65.3597 24.9999 67.3076 24.9999C69.2554 24.9603 70.4794 23.653 70.4794 21.2894ZM75.7569 14.489H78.5997L78.9288 16.9714C79.6131 15.3076 81.074 14.1588 83.2324 14.1588C86.5622 14.1588 88.7601 16.5621 88.7601 21.0121V21.3818C88.7601 25.6997 86.3253 27.9841 83.2324 27.9841C81.1662 27.9841 79.7447 27.0466 79.0472 25.5413V32.1832H75.7175L75.7569 14.489ZM85.2987 21.2894V20.9989C85.2987 18.3843 83.9563 17.0903 82.1664 17.0903C80.258 17.0903 78.9946 18.556 78.9946 20.9989V21.2497C78.9946 23.5738 80.2185 25.0395 82.1269 25.0395C84.0879 24.9999 85.2987 23.7454 85.2987 21.2894ZM93.8008 25.2111L93.5112 27.6144H90.5895V10.0918H93.9192V16.813C94.6562 15.0964 96.1171 14.1588 98.1834 14.1588C101.316 14.1984 103.632 16.364 103.632 20.7216V21.1309C103.632 25.4884 101.434 27.9841 98.1044 27.9841C95.9065 27.9313 94.4851 26.9145 93.8008 25.2111ZM100.131 21.1309V20.8008C100.131 18.3975 98.8283 17.0507 96.9989 17.0507C95.13 17.0507 93.8271 18.556 93.8271 20.8404V21.1309C93.8271 23.5738 95.0905 24.9999 96.9594 24.9999C98.9599 24.9999 100.131 23.7454 100.131 21.1309ZM105.093 21.329V20.9592C105.093 16.5621 107.896 14.1588 111.713 14.1588C115.609 14.1588 118.333 16.5621 118.333 20.9592V21.329C118.333 25.6469 115.648 27.9709 111.713 27.9709C107.488 27.9313 105.093 25.6601 105.093 21.329ZM114.872 21.2894V20.9592C114.872 18.5164 113.648 17.0507 111.7 17.0507C109.791 17.0507 108.528 18.3975 108.528 20.9592V21.2894C108.528 23.653 109.752 24.9999 111.7 24.9999C113.661 24.9603 114.872 23.653 114.872 21.2894ZM122.795 20.8008L118.201 14.489H122.137L124.782 18.4371L127.467 14.489H131.362L126.703 20.7612L131.612 27.6144H127.756L124.756 23.2569L121.834 27.6144H117.807L122.795 20.8008Z" fill="#CACACA"/>
<path d="M15.2668 11.3857L7.63341 16.2715L15.2668 21.1572L7.63341 26.0429L0 21.1308L7.63341 16.245L0 11.3857L7.63341 6.5L15.2668 11.3857ZM7.59393 27.6143L15.2273 22.7285L22.8607 27.6143L15.2273 32.5L7.59393 27.6143ZM15.2668 21.1308L22.9002 16.245L15.2668 11.3857L22.8607 6.5L30.4942 11.3857L22.8607 16.2715L30.4942 21.1572L22.8607 26.0429L15.2668 21.1308Z" fill="#CACACA"/>
</svg>
