<svg width="26" height="26" viewBox="0 0 26 26" fill="none" xmlns="http://www.w3.org/2000/svg">
<path d="M6.87428 2.62768C5.74218 3.78074 5.74218 5.64661 6.89524 6.79967L9.41102 9.31545C11.78 11.6845 11.78 15.542 9.41102 17.911L4.79876 13.2988C3.61425 12.1143 3.01675 10.5524 3.01675 9.00098C3.01675 7.44958 3.61425 5.8877 4.79876 4.70319L6.84283 2.65912C6.85331 2.64864 6.86379 2.63816 6.87428 2.62768Z" fill="#578BF2" stroke="white" stroke-width="2" stroke-miterlimit="10"/>
<path d="M8.88672 8.79029L6.89506 6.79863C5.742 5.64556 5.73152 3.79018 6.8741 2.62663C8.0062 1.5155 9.80917 1.53646 10.9308 2.65808C11.4968 3.22413 11.7799 3.96838 11.7799 4.70215C11.7799 5.43592 11.4968 6.18017 10.9308 6.74622L10.4591 7.21793" fill="#578BF2"/>
<path d="M8.88672 8.79029L6.89506 6.79863C5.742 5.64556 5.73152 3.79018 6.8741 2.62663C8.0062 1.5155 9.80917 1.53646 10.9308 2.65808C11.4968 3.22413 11.7799 3.96838 11.7799 4.70215C11.7799 5.43592 11.4968 6.18017 10.9308 6.74622L10.4591 7.21793" stroke="white" stroke-width="2" stroke-miterlimit="10"/>
<path d="M18.7714 23.2245C19.9035 22.0714 19.9035 20.2056 18.7504 19.0525L16.2346 16.5367C13.8656 14.1677 13.8656 10.3102 16.2346 7.94115L20.8469 12.5534C22.0314 13.7379 22.6289 15.2998 22.6289 16.8512C22.6289 18.4026 22.0314 19.9645 20.8469 21.149L18.8028 23.1931C18.7819 23.214 18.7714 23.2245 18.7714 23.2245Z" fill="#578BF2" stroke="white" stroke-width="2" stroke-miterlimit="10"/>
<path d="M16.7478 17.0715L18.7395 19.0632C19.8925 20.2163 19.903 22.0716 18.7604 23.2352C17.6283 24.3463 15.8254 24.3254 14.7037 23.2037C14.1377 22.6377 13.8547 21.8934 13.8547 21.1597C13.8547 20.4259 14.1377 19.6816 14.7037 19.1156L15.1859 18.6334" fill="#578BF2"/>
<path d="M16.7478 17.0715L18.7395 19.0632C19.8925 20.2163 19.903 22.0716 18.7604 23.2352C17.6283 24.3463 15.8254 24.3254 14.7037 23.2037C14.1377 22.6377 13.8547 21.8934 13.8547 21.1597C13.8547 20.4259 14.1377 19.6816 14.7037 19.1156L15.1859 18.6334" stroke="white" stroke-width="2" stroke-miterlimit="10"/>
</svg>
