<svg width="141" height="147" viewBox="0 0 141 147" fill="none" xmlns="http://www.w3.org/2000/svg">
<g clip-path="url(#clip0_2252_3335)">
<g opacity="0.46">
<path d="M132.469 30.5803H54.4929C53.6715 30.5803 53.0754 29.8034 53.2826 29.0083L60.5591 0.941045C60.7044 0.386631 61.2024 0 61.7694 0H139.746C140.567 0 141.163 0.776909 140.956 1.57206L133.676 29.6393C133.531 30.1937 133.033 30.5803 132.466 30.5803H132.469Z" fill="#BFD9FF"/>
<path d="M65.1855 6.00391H92.3177" stroke="#A9C2FF" stroke-width="2" stroke-linecap="round" stroke-linejoin="round"/>
<path d="M63.0996 18.5732H90.2318" stroke="#A9C2FF" stroke-width="2" stroke-linecap="round" stroke-linejoin="round"/>
<path d="M74.5088 13.8242H101.641" stroke="#A9C2FF" stroke-width="2" stroke-linecap="round" stroke-linejoin="round"/>
<path d="M64.4912 10.1948H72.629" stroke="#A9C2FF" stroke-width="2" stroke-linecap="round" stroke-linejoin="round"/>
<path d="M63.376 13.8242H71.5174" stroke="#A9C2FF" stroke-width="2" stroke-linecap="round" stroke-linejoin="round"/>
<path d="M96.6318 6.00391H106.303" stroke="#A9C2FF" stroke-width="2" stroke-linecap="round" stroke-linejoin="round"/>
<path d="M101.372 24.4671H86.9319C86.8592 24.4671 86.8047 24.3978 86.8229 24.3285L87.4698 21.8373C87.4844 21.7899 87.528 21.7534 87.5789 21.7534H102.019C102.092 21.7534 102.146 21.8227 102.128 21.892L101.481 24.3832C101.467 24.4307 101.423 24.4671 101.372 24.4671Z" stroke="#84AEE5" stroke-width="1.15" stroke-miterlimit="10"/>
<path d="M83.4209 24.4671H68.9807C68.908 24.4671 68.8535 24.3978 68.8717 24.3285L69.5186 21.8373C69.5332 21.7899 69.5768 21.7534 69.6277 21.7534H84.0679C84.1406 21.7534 84.1951 21.8227 84.1769 21.892L83.53 24.3832C83.5154 24.4307 83.4718 24.4671 83.4209 24.4671Z" stroke="#84AEE5" stroke-width="1.15" stroke-miterlimit="10"/>
<path d="M126.752 20.8561C126.011 19.8676 123.008 19.1454 122.18 18.1569C121.754 17.65 121.754 16.7126 121.856 15.9138C122.151 15.7241 122.398 15.5344 122.543 15.3593C122.794 14.9946 123.074 14.484 123.354 13.9222C123.437 14.0061 123.554 14.0718 123.699 14.0681C124.092 14.0572 125.593 12.0073 125.207 11.5295C124.986 11.2596 124.629 11.493 124.364 11.7447C124.76 10.8328 125.04 10.1325 125.04 10.1325H125.026C125.062 10.0158 125.098 9.90274 125.127 9.78237C125.723 7.38599 124.27 5.44189 121.882 5.44189C119.494 5.44189 117.073 7.38599 116.477 9.78237C116.448 9.89909 116.426 10.0158 116.404 10.1325H116.39C116.39 10.1325 116.321 10.8328 116.266 11.7447C116.125 11.493 115.885 11.2559 115.528 11.5295C114.907 12.0037 115.387 14.0536 115.776 14.0681C115.921 14.0718 116.066 14.0061 116.194 13.9222C116.194 14.484 116.223 14.9946 116.292 15.3593C116.364 15.5745 116.572 15.8116 116.844 16.0414C116.546 16.811 116.095 17.6791 115.456 18.1569C114.133 19.1454 110.774 19.8676 109.542 20.8561C108.434 21.7461 107.445 24.3467 107.26 24.8573H127.046C127.115 24.343 127.417 21.7461 126.752 20.8561Z" fill="#8DBCF8"/>
</g>
<path d="M118.901 52.9246H40.9246C40.1032 52.9246 39.5071 52.1477 39.7143 51.3525L46.9943 23.2853C47.1397 22.7309 47.6377 22.3442 48.2046 22.3442H126.181C127.002 22.3442 127.598 23.1211 127.391 23.9163L120.111 51.9835C119.966 52.5379 119.468 52.9246 118.901 52.9246Z" stroke="#7094D8" stroke-width="1.15" stroke-miterlimit="10"/>
<path d="M117.44 50.8274H39.4636C38.6422 50.8274 38.0462 50.0505 38.2533 49.2553L45.5334 21.1881C45.6788 20.6337 46.1767 20.2471 46.7437 20.2471H124.72C125.541 20.2471 126.138 21.024 125.93 21.8191L118.65 49.8864C118.505 50.4408 118.007 50.8274 117.44 50.8274Z" fill="#A5C5FF"/>
<path d="M63.9355 50.8276H102.964" stroke="#7094D8" stroke-width="1.15" stroke-miterlimit="10"/>
<path d="M53.082 20.2471H86.0586" stroke="#7094D8" stroke-width="1.15" stroke-miterlimit="10"/>
<path d="M111.145 46.6401H93.612C92.8051 46.6401 92.3144 45.9836 92.5143 45.1738L96.9376 27.3706C97.1375 26.5608 97.9553 25.9043 98.7622 25.9043H116.295C117.102 25.9043 117.593 26.5608 117.393 27.3706L112.97 45.1738C112.77 45.9836 111.952 46.6401 111.145 46.6401Z" fill="#B7DEFF"/>
<path d="M102.542 46.7092L104.076 40.534L101.561 39.4653C101.561 39.4653 96.8719 41.1869 96.4721 41.6027C96.1377 41.9529 94.4549 45.5529 93.917 46.7092H102.538H102.542Z" fill="#023F61"/>
<path d="M111.221 46.7092C111.261 45.5529 111.366 41.9493 111.207 41.6027C111.014 41.1869 107.183 39.4653 107.183 39.4653L104.137 40.534L102.604 46.7092H111.225H111.221Z" fill="#023F61"/>
<path d="M104.126 46.7093L106.533 41.3657L101.368 41.6612L100.866 46.7093H104.126Z" fill="#BEBECF"/>
<path d="M102.491 38.3347L101.368 39.0496L100.63 40.8296L100.438 43.2661L102.022 42.6132L103.251 44.0977L104.89 42.7299L105.897 43.6819L107.42 40.4138L107.151 38.3967L106.515 38.0977L102.491 38.3347Z" fill="#DEE0E8"/>
<path d="M102.837 33.6624C102.837 33.6624 102.459 32.8016 101.685 33.3743C100.91 33.947 101.815 36.1573 102.379 35.4935C102.938 34.8296 102.837 33.6624 102.837 33.6624Z" fill="#FB8E74"/>
<path d="M108.354 33.6152C108.354 33.6152 109.088 32.7033 109.644 33.2139C110.2 33.7246 108.376 36.0626 108.074 35.4389C107.772 34.8152 108.354 33.6152 108.354 33.6152Z" fill="#FB8E74"/>
<path d="M106.631 40.0602L107.424 35.8438L102.84 36.2413L101.83 40.1988C101.83 40.1988 102.63 42.0736 103.491 42.9052C103.491 42.9052 106.155 40.5927 106.635 40.0566L106.631 40.0602Z" fill="#FB8877"/>
<path d="M110.346 31.9153C110.175 32.4296 109.753 32.5572 109.724 32.8563C109.692 33.1554 109.503 33.925 109.212 34.2241C108.921 34.5232 108.772 34.6071 108.772 34.6071C108.772 34.6071 104.84 35.7196 102.844 34.1804C102.844 34.1804 102.713 33.5968 102.851 32.9001C102.986 32.2107 102.652 32.0867 103.04 31.7475C103.429 31.4083 103.546 31.1056 103.553 30.7226C103.56 30.3396 103.593 29.8691 103.989 29.4824C104.389 29.0994 104.745 29.2271 105.134 28.8842C105.134 28.8842 105.708 27.9177 106.464 27.8082C107.22 27.6988 108.819 27.294 109.768 28.4684C110.717 29.6393 110.281 30.6679 110.553 31.0326C110.826 31.3973 110.346 31.9189 110.346 31.9189V31.9153Z" fill="#713336"/>
<path d="M102.807 32.9368C102.807 32.9368 100.95 38.0651 104.446 38.4517C107.536 38.5247 108.63 34.7422 109.073 32.8018C109.517 30.8613 109.24 28.8334 106.769 28.899C104.297 28.9647 103.076 31.7878 102.807 32.9368Z" fill="#FBA990"/>
<path d="M103.778 31.0946C103.778 31.0946 104.007 31.5067 103.796 31.9189C103.586 32.3347 103.008 32.4915 102.924 33.0387C102.837 33.5858 102.586 34.7238 102.43 34.7748C102.274 34.8259 102.386 33.6624 102.412 33.2648C102.437 32.8672 102.732 31.2222 103.557 30.1754C104.382 29.1286 104.891 28.6872 106.359 28.4502C107.827 28.2094 108.939 28.8295 109.347 29.7304C109.754 30.6277 109.103 32.9183 109.103 32.9183C109.103 32.9183 109.201 31.8313 108.838 31.576C108.474 31.3207 108.176 31.131 108.234 30.9815C108.296 30.8319 107.071 31.3718 105.85 30.9815C104.629 30.5876 104.233 30.7663 104.033 30.8939C103.829 31.0216 103.782 31.0982 103.782 31.0982L103.778 31.0946Z" fill="#713336"/>
<path d="M100.318 40.8882C100.289 41.0085 98.6133 45.0135 98.6133 45.0135L100.085 45.7539L99.6709 46.5855" stroke="#022755" stroke-width="0.49" stroke-miterlimit="10"/>
<path d="M107.569 40.8882C107.54 41.0085 107.224 45.0135 107.224 45.0135L105.381 45.7539V46.5855" stroke="#022755" stroke-width="0.49" stroke-miterlimit="10"/>
<path d="M111.145 46.6401H93.612C92.8051 46.6401 92.3144 45.9836 92.5143 45.1738L96.9376 27.3706C97.1375 26.5608 97.9553 25.9043 98.7622 25.9043H116.295C117.102 25.9043 117.593 26.5608 117.393 27.3706L112.97 45.1738C112.77 45.9836 111.952 46.6401 111.145 46.6401Z" stroke="white" stroke-width="1.15" stroke-miterlimit="10"/>
<path d="M50.1602 26.9512H77.2923" stroke="#73A5FF" stroke-width="2" stroke-linecap="round" stroke-linejoin="round"/>
<path d="M48.0703 39.5166H75.2061" stroke="#73A5FF" stroke-width="2" stroke-linecap="round" stroke-linejoin="round"/>
<path d="M59.4834 34.7715H86.6156" stroke="#73A5FF" stroke-width="2" stroke-linecap="round" stroke-linejoin="round"/>
<path d="M49.4619 31.1382H57.6034" stroke="#73A5FF" stroke-width="2" stroke-linecap="round" stroke-linejoin="round"/>
<path d="M48.3506 34.7715H56.4884" stroke="#73A5FF" stroke-width="2" stroke-linecap="round" stroke-linejoin="round"/>
<path d="M81.6064 26.9512H91.2744" stroke="#73A5FF" stroke-width="2" stroke-linecap="round" stroke-linejoin="round"/>
<path d="M86.3428 45.4144H71.9026C71.8299 45.4144 71.7754 45.3451 71.7936 45.2758L72.4405 42.7846C72.4551 42.7372 72.4987 42.7007 72.5496 42.7007H86.9897C87.0624 42.7007 87.117 42.77 87.0988 42.8393L86.4518 45.3305C86.4373 45.3779 86.3937 45.4144 86.3428 45.4144Z" stroke="#7094D8" stroke-width="1.15" stroke-miterlimit="10"/>
<path d="M68.3946 45.4144H53.9544C53.8817 45.4144 53.8271 45.3451 53.8453 45.2758L54.4923 42.7846C54.5068 42.7372 54.5504 42.7007 54.6013 42.7007H69.0415C69.1142 42.7007 69.1687 42.77 69.1505 42.8393L68.5036 45.3305C68.4927 45.3779 68.4454 45.4144 68.3946 45.4144Z" stroke="#7094D8" stroke-width="1.15" stroke-miterlimit="10"/>
<path d="M85.0156 17.1064H101.92" stroke="#7094D8" stroke-width="1.15" stroke-miterlimit="10"/>
<path d="M118.276 90.9055H40.2996C39.4782 90.9055 38.8821 90.1286 39.0893 89.3335L46.3693 61.2662C46.5147 60.7118 47.0127 60.3252 47.5796 60.3252H125.556C126.377 60.3252 126.973 61.1021 126.766 61.8973L119.486 89.9645C119.341 90.5189 118.843 90.9055 118.276 90.9055Z" fill="#BFD9FF"/>
<path d="M50.9922 66.3291H78.128" stroke="#A9C2FF" stroke-width="2" stroke-linecap="round" stroke-linejoin="round"/>
<path d="M48.9062 78.8945H76.0384" stroke="#A9C2FF" stroke-width="2" stroke-linecap="round" stroke-linejoin="round"/>
<path d="M60.3154 74.1494H87.4512" stroke="#A9C2FF" stroke-width="2" stroke-linecap="round" stroke-linejoin="round"/>
<path d="M50.2979 70.5166H58.4357" stroke="#A9C2FF" stroke-width="2" stroke-linecap="round" stroke-linejoin="round"/>
<path d="M49.1865 74.1494H57.3244" stroke="#A9C2FF" stroke-width="2" stroke-linecap="round" stroke-linejoin="round"/>
<path d="M82.4385 66.3291H92.1101" stroke="#A9C2FF" stroke-width="2" stroke-linecap="round" stroke-linejoin="round"/>
<path d="M87.1787 84.7923H72.7385C72.6658 84.7923 72.6113 84.723 72.6295 84.6537L73.2765 82.1625C73.291 82.1151 73.3346 82.0786 73.3855 82.0786H87.8257C87.8984 82.0786 87.9529 82.1479 87.9347 82.2172L87.2878 84.7084C87.2769 84.7559 87.2296 84.7923 87.1787 84.7923Z" stroke="#84AEE5" stroke-width="1.15" stroke-miterlimit="10"/>
<path d="M69.2305 84.7923H54.7903C54.7176 84.7923 54.6631 84.723 54.6813 84.6537L55.3282 82.1625C55.3428 82.1151 55.3864 82.0786 55.4373 82.0786H69.8774C69.9501 82.0786 70.0047 82.1479 69.9865 82.2172L69.3395 84.7084C69.325 84.7559 69.2814 84.7923 69.2305 84.7923Z" stroke="#84AEE5" stroke-width="1.15" stroke-miterlimit="10"/>
<path d="M112.559 81.1778C111.817 80.1894 108.815 79.4672 107.986 78.4787C107.561 77.9717 107.561 77.0343 107.663 76.2355C107.957 76.0459 108.204 75.8562 108.35 75.6811C108.601 75.3164 108.88 74.8057 109.16 74.244C109.244 74.3279 109.36 74.3936 109.506 74.3899C109.898 74.379 111.399 72.3291 111.014 71.8513C110.792 71.5814 110.436 71.8148 110.171 72.0665C110.567 71.1546 110.847 70.4543 110.847 70.4543H110.832C110.869 70.3376 110.905 70.2245 110.934 70.1041C111.53 67.7078 110.076 65.7637 107.688 65.7637C105.3 65.7637 102.88 67.7078 102.284 70.1041C102.255 70.2209 102.233 70.3376 102.211 70.4543H102.196C102.196 70.4543 102.127 71.1546 102.073 72.0665C101.931 71.8148 101.691 71.5777 101.335 71.8513C100.714 72.3255 101.193 74.3753 101.582 74.3899C101.728 74.3936 101.873 74.3279 102 74.244C102 74.8057 102.029 75.3164 102.098 75.6811C102.171 75.8963 102.378 76.1334 102.651 76.3632C102.353 77.1328 101.902 78.0009 101.262 78.4787C99.9394 79.4672 96.581 80.1894 95.3489 81.1778C94.2404 82.0678 93.2518 84.6685 93.0664 85.1791H112.853C112.922 84.6648 113.224 82.0678 112.559 81.1778Z" fill="#8DBCF8"/>
<g opacity="0.46">
<path d="M110.207 128.329H32.2273C31.4059 128.329 30.8098 127.552 31.017 126.757L38.2971 98.6896C38.4425 98.1352 38.9404 97.7485 39.5074 97.7485H117.484C118.305 97.7485 118.901 98.5254 118.694 99.3206L111.414 127.388C111.269 127.942 110.771 128.329 110.204 128.329H110.207Z" fill="#BFD9FF"/>
<path d="M42.9238 103.752H70.056" stroke="#A9C2FF" stroke-width="3.45" stroke-linecap="round" stroke-linejoin="round"/>
<path d="M40.8379 116.318H67.97" stroke="#A9C2FF" stroke-width="3.45" stroke-linecap="round" stroke-linejoin="round"/>
<path d="M52.2471 111.573H79.3792" stroke="#A9C2FF" stroke-width="3.45" stroke-linecap="round" stroke-linejoin="round"/>
<path d="M42.2266 107.94H50.368" stroke="#A9C2FF" stroke-width="3.45" stroke-linecap="round" stroke-linejoin="round"/>
<path d="M41.1143 111.573H49.2557" stroke="#A9C2FF" stroke-width="3.45" stroke-linecap="round" stroke-linejoin="round"/>
<path d="M74.3701 103.752H84.0417" stroke="#A9C2FF" stroke-width="3.45" stroke-linecap="round" stroke-linejoin="round"/>
<path d="M79.1104 122.216H64.6702C64.5975 122.216 64.543 122.146 64.5611 122.077L65.2081 119.586C65.2226 119.538 65.2662 119.502 65.3171 119.502H79.7573C79.83 119.502 79.8845 119.571 79.8664 119.641L79.2194 122.132C79.2085 122.179 79.1613 122.216 79.1104 122.216Z" stroke="#84AEE5" stroke-width="1.15" stroke-miterlimit="10"/>
<path d="M61.1592 122.216H46.719C46.6463 122.216 46.5918 122.146 46.61 122.077L47.2569 119.586C47.2715 119.538 47.3151 119.502 47.366 119.502H61.8062C61.8788 119.502 61.9334 119.571 61.9152 119.641L61.2682 122.132C61.2573 122.179 61.2101 122.216 61.1592 122.216Z" stroke="#84AEE5" stroke-width="1.15" stroke-miterlimit="10"/>
<path d="M104.49 118.601C103.749 117.613 100.747 116.891 99.918 115.902C99.4928 115.395 99.4928 114.458 99.5945 113.659C99.8889 113.469 100.136 113.28 100.281 113.104C100.532 112.74 100.812 112.229 101.092 111.667C101.176 111.751 101.292 111.817 101.437 111.813C101.83 111.802 103.331 109.752 102.946 109.275C102.724 109.005 102.368 109.238 102.102 109.49C102.499 108.578 102.778 107.878 102.778 107.878H102.764C102.8 107.761 102.837 107.648 102.866 107.527C103.462 105.131 102.008 103.187 99.62 103.187C97.232 103.187 94.8114 105.131 94.2153 107.527C94.1863 107.644 94.1645 107.761 94.1427 107.878H94.1281C94.1281 107.878 94.0591 108.578 94.0045 109.49C93.8628 109.238 93.6229 109.001 93.2667 109.275C92.6452 109.749 93.125 111.799 93.5139 111.813C93.6593 111.817 93.8046 111.751 93.9319 111.667C93.9319 112.229 93.9609 112.74 94.03 113.104C94.1027 113.32 94.3099 113.557 94.5824 113.787C94.2844 114.556 93.8337 115.424 93.194 115.902C91.871 116.891 88.5127 117.613 87.2806 118.601C86.172 119.491 85.1834 122.092 84.998 122.602H104.785C104.854 122.088 105.155 119.491 104.49 118.601Z" fill="#8DBCF8"/>
</g>
<path d="M94.6152 128.467H108.532" stroke="#7094D8" stroke-width="1.15" stroke-miterlimit="10"/>
<path d="M47.3076 91.0444H80.4223" stroke="#7094D8" stroke-width="1.15" stroke-miterlimit="10"/>
<path d="M88.0078 91.0444H96.0766" stroke="#7094D8" stroke-width="1.15" stroke-miterlimit="10"/>
<path d="M122.863 60.4639H125.662C126.483 60.4639 127.072 61.2627 126.829 62.0505L125.647 65.9095" stroke="#7094D8" stroke-width="1.15" stroke-miterlimit="10"/>
<path d="M34.2661 11.1138H32.8377C32.4779 11.1138 32.2598 10.822 32.3507 10.4645L32.7069 9.03108C32.7977 8.66999 33.1576 8.38184 33.5174 8.38184H34.9458C35.3056 8.38184 35.5237 8.67363 35.4328 9.03108L35.0766 10.4645C34.9858 10.8256 34.6259 11.1138 34.2661 11.1138Z" fill="#BFD9FF"/>
<path d="M33.2231 15.312H31.7948C31.4349 15.312 31.2169 15.0202 31.3077 14.6628L31.6639 13.2293C31.7548 12.8682 32.1146 12.5801 32.4744 12.5801H33.9028C34.2626 12.5801 34.4807 12.8719 34.3898 13.2293L34.0337 14.6628C33.9428 15.0239 33.583 15.312 33.2231 15.312Z" fill="#EDF4FF"/>
<path d="M37.7632 15.312H36.3348C35.975 15.312 35.7569 15.0202 35.8478 14.6628L36.2039 13.2293C36.2948 12.8682 36.6546 12.5801 37.0145 12.5801H38.4428C38.8027 12.5801 39.0207 12.8719 38.9299 13.2293L38.5737 14.6628C38.4828 15.0239 38.123 15.312 37.7632 15.312Z" fill="#BFD9FF"/>
<path d="M42.3062 15.312H40.8778C40.5179 15.312 40.2999 15.0202 40.3907 14.6628L40.7469 13.2293C40.8378 12.8682 41.1976 12.5801 41.5574 12.5801H42.9858C43.3456 12.5801 43.5637 12.8719 43.4729 13.2293L43.1167 14.6628C43.0258 15.0239 42.666 15.312 42.3062 15.312Z" fill="#EDF4FF"/>
<path d="M32.1548 19.6089H30.7264C30.3666 19.6089 30.1485 19.3171 30.2394 18.9597L30.5956 17.5262C30.6864 17.1651 31.0462 16.877 31.4061 16.877H32.8345C33.1943 16.877 33.4124 17.1687 33.3215 17.5262L32.9653 18.9597C32.8744 19.3208 32.5146 19.6089 32.1548 19.6089Z" fill="#EDF4FF"/>
<path d="M31.0171 24.1973H29.5887C29.2289 24.1973 29.0108 23.9055 29.1017 23.548L29.4579 22.1146C29.5487 21.7535 29.9085 21.4653 30.2684 21.4653H31.6968C32.0566 21.4653 32.2747 21.7571 32.1838 22.1146L31.8276 23.548C31.7367 23.9091 31.3769 24.1973 31.0171 24.1973Z" fill="#EDF4FF"/>
<path d="M36.6978 19.6089H35.2694C34.9095 19.6089 34.6915 19.3171 34.7823 18.9597L35.1385 17.5262C35.2294 17.1651 35.5892 16.877 35.949 16.877H37.3774C37.7372 16.877 37.9553 17.1687 37.8645 17.5262L37.5083 18.9597C37.4174 19.3208 37.0576 19.6089 36.6978 19.6089Z" fill="#EDF4FF"/>
<path d="M34.7065 27.6152H33.2782C32.9183 27.6152 32.7003 27.3235 32.7911 26.966L33.1473 25.5325C33.2382 25.1714 33.598 24.8833 33.9578 24.8833H35.3862C35.746 24.8833 35.9641 25.1751 35.8732 25.5325L35.5171 26.966C35.4262 27.3271 35.0664 27.6152 34.7065 27.6152Z" fill="#BFD9FF"/>
<path d="M57.1529 2.77579C57.1529 2.77579 57.1384 2.77579 57.1311 2.77579C57.1093 2.77579 57.0875 2.77214 57.0657 2.7685C56.9203 2.7612 56.7713 2.75391 56.6186 2.75391C52.388 2.75391 48.1064 6.15699 46.9797 10.3844L46.9288 10.585C46.9252 10.6069 46.9216 10.6288 46.9143 10.647L46.8816 10.7747H46.8852C45.9584 15.0604 48.6953 18.4708 53.0822 18.2921C57.0802 18.128 61.1146 14.9255 62.3177 10.9534C63.6188 6.64575 61.2491 3.05665 57.1529 2.7685V2.77579ZM60.0715 10.8148C59.2283 13.6379 56.3424 15.9176 53.5074 16.0051C50.458 16.1036 48.5535 13.7255 49.1823 10.7382L49.2695 10.3844C50.08 7.42266 53.0858 5.04816 56.0553 5.04816C56.2079 5.04816 56.3606 5.05545 56.506 5.07004C59.3409 5.31078 60.9729 7.81658 60.0751 10.8148H60.0715Z" fill="#EBEDFC"/>
<path d="M56.7385 4.09964C56.6077 4.62852 56.8512 5.08446 57.3309 5.21212C59.6425 5.82489 60.8783 8.12279 60.0714 10.8146C59.2282 13.6378 56.3423 15.9174 53.5074 16.005C50.7233 16.0925 48.8951 14.1265 49.0732 11.5113C49.1095 10.9715 48.7279 10.5848 48.1827 10.5848C47.474 10.5848 46.7688 11.2268 46.7216 11.9234C46.4708 15.6512 49.0986 18.4561 53.0857 18.2919C57.0838 18.1278 61.1182 14.9253 62.3212 10.9532C63.4807 7.11974 61.7324 3.85161 58.4431 2.97622C57.7635 2.79385 56.9275 3.34097 56.7385 4.0887V4.09964Z" fill="#A5C5FF"/>
<path d="M76.4274 1.99138C76.4274 1.99138 76.4129 1.99138 76.4056 1.99138C76.3801 1.99138 76.3511 1.99138 76.3256 1.98773C76.1839 1.98044 76.0385 1.97314 75.8931 1.97314C71.6152 1.97314 67.2792 5.45282 66.2142 9.74953C65.1457 14.0426 67.7516 17.5259 72.0296 17.5259C72.1749 17.5259 72.3203 17.5186 72.4693 17.5113C72.4984 17.5113 72.5239 17.5113 72.5529 17.5077C72.5602 17.5077 72.5675 17.5077 72.5747 17.5077C76.6491 17.2305 80.6435 13.9003 81.6939 9.81883C81.7012 9.79695 81.7085 9.77507 81.7121 9.74953C82.7334 5.63884 80.3891 2.27224 76.4274 1.99503V1.99138ZM72.9854 15.2134C72.9854 15.2134 72.9709 15.2134 72.9636 15.2134C72.8728 15.2207 72.7819 15.2244 72.6947 15.2244C72.662 15.2244 72.6329 15.2244 72.6002 15.2244C69.5835 15.2244 67.748 12.7696 68.5004 9.74224C69.2527 6.71484 72.3058 4.2601 75.3225 4.2601C75.3552 4.2601 75.3843 4.2601 75.4134 4.2601C75.5042 4.2601 75.5914 4.26375 75.6787 4.27105C75.6859 4.27105 75.6932 4.27105 75.7005 4.27105C78.4882 4.46801 80.1383 6.83886 79.4187 9.73494C79.4114 9.75683 79.4078 9.77871 79.4005 9.80424C78.6518 12.6712 75.8459 15.0092 72.9818 15.2025L72.9854 15.2134Z" fill="white"/>
<path d="M79.0734 10.7711C78.1138 12.9705 75.9585 14.703 73.6687 15.1261C73.0945 15.2319 72.5784 15.6988 72.4403 16.2568C72.2622 16.979 72.7855 17.5189 73.5234 17.3839C76.7908 16.7894 79.8621 14.3164 81.225 11.1796C81.534 10.472 81.1596 9.81543 80.44 9.81543C79.8802 9.81543 79.3169 10.2203 79.0734 10.7711Z" fill="#BFD9FF"/>
<path d="M55.8701 29.3548H41.4299C41.3572 29.3548 41.3027 29.2855 41.3209 29.2162L41.9679 26.725C41.9824 26.6776 42.026 26.6411 42.0769 26.6411H56.5171C56.5898 26.6411 56.6443 26.7104 56.6261 26.7797L55.9792 29.2709C55.9646 29.3183 55.921 29.3548 55.8701 29.3548Z" fill="#EDF4FF"/>
<path d="M122.851 40.9071C125.857 38.2427 126.616 34.1759 124.546 31.8235C122.475 29.4711 118.36 29.7239 115.354 32.3882C112.348 35.0525 111.589 39.1194 113.66 41.4718C115.73 43.8242 119.845 43.5714 122.851 40.9071Z" fill="#73A5FF"/>
<path d="M128.585 43.5654C128.345 44.5393 127.36 45.3272 126.393 45.3272C125.426 45.3272 124.834 44.5393 125.077 43.5654C125.317 42.5916 126.302 41.8037 127.269 41.8037C128.236 41.8037 128.828 42.5916 128.585 43.5654Z" fill="#73A5FF"/>
<path d="M117.451 39.9249C117.251 39.9249 117.066 39.8483 116.95 39.6915L115.292 37.4775C115.06 37.1675 115.187 36.6678 115.569 36.3577C115.954 36.0477 116.452 36.0477 116.684 36.3577L117.924 38.0137L122.347 34.461C122.732 34.151 123.23 34.151 123.463 34.461C123.696 34.7711 123.568 35.2708 123.187 35.5808L118.066 39.6951C117.873 39.8483 117.651 39.9286 117.451 39.9286V39.9249Z" fill="white"/>
<path d="M9.09771 139.14C9.09771 139.14 9.67924 137.892 11.8309 138.224C13.9826 138.556 14.2334 138.972 14.4842 140.055C14.7313 141.135 15.48 142.302 15.9743 142.55C16.4723 142.798 18.2932 144.045 19.787 144.297C21.2772 144.545 21.4444 145.461 21.1136 145.877C20.7829 146.292 15.1457 146.624 13.9026 146.46C13.9026 146.46 9.6756 146.376 8.68336 146.044C7.68749 145.712 9.01411 139.559 9.09771 139.143V139.14Z" fill="#2D2737"/>
<path d="M6.70273 109.905C6.70273 109.905 6.07394 106.462 9.69762 105.306C13.3213 104.15 14.0082 105.831 15.1059 108.972C16.2035 112.112 14.1645 138.946 14.1645 138.946C14.1645 138.946 9.99202 139.661 8.91982 139.027C8.91982 139.027 5.73956 121.559 5.96127 116.766C6.18298 111.973 6.70636 109.905 6.70636 109.905H6.70273Z" fill="#3D4776"/>
<path d="M8.47656 137.972C8.47656 137.972 13.2015 137.557 14.6917 137.309L14.6081 139.472C14.6081 139.472 10.879 140.135 8.56016 139.803L8.47656 137.972Z" fill="#51598D"/>
<path d="M7.31662 42.6719C7.31662 42.6719 4.33263 42.8397 2.5117 49.6568C0.687143 56.4775 -0.475923 64.7937 0.189206 66.9567C0.8507 69.1196 7.97812 74.941 10.6314 74.941C13.2846 74.941 13.4482 72.9458 12.9502 71.2826C12.4523 69.6193 7.31662 65.1293 7.31662 65.1293C7.31662 65.1293 11.46 51.8234 11.2929 48.3327C11.1257 44.8421 9.13755 42.6792 7.31662 42.6792V42.6719Z" fill="#7E78C7"/>
<path d="M44.6691 40.6405L44.1748 40.6915L45.2834 38.4885C45.2834 38.4885 48.1038 38.3097 48.5545 39.5061L47.2606 42.384L44.6691 40.6441V40.6405Z" fill="#FF8D68"/>
<path d="M46.2531 34.3776C46.2531 34.3776 46.144 32.1271 46.94 31.8062C47.7396 31.4852 48.6337 32.1089 48.6337 32.1089C48.6337 32.1089 49.924 31.9776 50.3384 32.5284C50.7527 33.0791 50.7164 33.918 50.7164 33.918C50.7164 33.918 51.4433 34.0822 51.6359 34.7752C51.8249 35.4719 51.4869 36.8141 51.4869 36.8141C51.4869 36.8141 50.6437 37.8537 49.666 37.5947C48.6919 37.3357 46.2531 34.3703 46.2531 34.3703V34.3776Z" fill="#FF7759"/>
<path d="M44.7776 36.1977C44.7776 36.1977 44.4796 33.2506 44.7958 32.8603C45.112 32.47 48.3468 27.98 48.3468 27.98C48.3468 27.98 49.0192 28.7459 48.6303 29.6177C48.245 30.4894 46.7221 33.1411 46.7221 33.1411L46.7149 35.4062C46.7149 35.4062 45.719 36.1029 44.7776 36.2014V36.1977Z" fill="#FF7759"/>
<path d="M45.0139 38.5541C45.0139 38.5541 44.2397 33.8233 44.7668 33.1704C45.2938 32.5212 47.8816 32.9005 48.3723 33.0865C48.8666 33.2725 50.2332 35.0416 50.4222 35.7346C50.6112 36.4276 49.3245 38.9443 48.5504 39.4988C47.7762 40.0532 45.461 39.4586 45.0139 38.5504V38.5541Z" fill="#FF8D68"/>
<path d="M43.1973 41.6763L44.1931 39.8452C44.1931 39.8452 46.512 39.4294 47.6751 41.2605C48.0058 41.9243 47.8423 41.9243 47.8423 41.9243L47.0972 43.4198L43.2009 41.6726L43.1973 41.6763Z" fill="#DEE0E8"/>
<path d="M19.591 21.6553C19.591 21.6553 22.0443 22.2863 23.4327 26.0615C24.8211 29.8402 23.8943 37.8683 22.9711 38.813C22.0479 39.7577 19.2311 39.3966 15.3312 38.1054C11.2096 36.7412 9.81756 32.4409 9.07974 29.6068C7.66953 24.1757 12.3763 18.5878 19.591 21.659V21.6553Z" fill="#FF8D68"/>
<path d="M10.7947 42.5077L12.7828 35.355C12.7828 35.355 16.759 34.1915 19.2451 36.8505L20.0737 38.014V42.6718C20.0737 42.6718 15.9303 43.5034 10.791 42.504L10.7947 42.5077Z" fill="#FF8D68"/>
<path d="M5.24531 81.0103C5.24531 81.0103 3.75513 89.7423 5.24531 99.7217C6.73549 109.701 9.71948 110.701 12.4563 110.701C15.1932 110.701 15.9383 102.716 16.4326 99.2257C16.9305 95.7314 18.9186 83.7568 15.1895 81.0139C11.4604 78.271 7.23343 78.0193 5.24531 81.0139V81.0103Z" fill="#3D4776"/>
<path d="M15.6836 92.737C15.6836 92.737 12.6996 84.7527 17.9225 81.262C23.1418 77.7678 27.1216 78.2675 28.3647 84.0049C29.6077 89.7424 29.8548 109.453 28.1175 113.444C26.3765 117.434 20.1614 111.197 15.6872 92.737H15.6836Z" fill="#3D4776"/>
<path d="M24.3741 21.9944C24.3741 21.9944 25.5517 23.53 24.8429 25.299C24.1378 27.0717 21.55 27.7793 21.55 27.7793C21.55 27.7793 22.375 28.9611 21.55 30.6134L20.9612 31.5581C20.9612 31.5581 21.7862 33.4474 21.55 33.918C21.3137 34.3885 20.4923 34.2718 20.4923 34.2718C20.4923 34.2718 19.551 31.6748 19.1984 31.9119C18.8459 32.149 17.9045 33.3271 17.9045 34.3921C17.9045 35.4572 18.2571 36.2815 18.0208 36.9891C17.7846 37.6967 14.1391 37.6967 12.6089 37.4597C11.0788 37.2226 8.72718 32.5028 8.13837 30.3763C8.13837 30.3763 7.31332 27.4255 8.49093 24.9452C8.49093 24.9452 8.25468 22.8187 10.2573 20.6959C12.2564 18.5695 18.6096 19.2807 19.6673 20.105C19.6673 20.105 19.551 18.9233 20.7249 19.1603C21.9025 19.3974 23.6653 20.4588 24.3704 21.9944H24.3741Z" fill="#C53A45"/>
<path d="M20.845 32.7399C20.845 32.7399 20.4924 31.2043 19.1985 31.9119C17.9046 32.6195 19.4347 36.2816 20.4924 36.0445C21.5501 35.8074 21.0812 33.3308 20.845 32.7399Z" fill="#FF7759"/>
<path d="M9.74414 42.4677C9.74414 42.4677 10.3002 40.509 10.7982 40.3449C11.2961 40.1771 17.4276 39.5132 20.7424 41.5084C22.2326 42.6719 22.069 43.5036 22.069 43.5036C22.069 43.5036 12.1757 41.5996 9.74778 42.4677H9.74414Z" fill="#DEE0E8"/>
<path d="M8.47599 42.0081C8.47599 42.0081 18.751 41.3442 26.0419 44.5029C29.3567 46.1662 36.9384 53.6909 36.9384 53.6909L42.9064 41.2166C42.9064 41.2166 46.2611 40.0092 47.5877 43.1716C47.5877 43.1716 43.8187 57.8891 40.6675 62.5469C38.6794 64.2102 29.1895 58.8046 29.1895 58.8046C29.1895 58.8046 30.6797 78.096 30.1854 86.7478C29.5239 88.4111 16.5956 89.2427 14.2768 89.0749C11.9579 88.9071 3.83462 86.2481 3.67107 85.7484C3.50388 85.2487 4.8305 65.2898 4.49975 62.9627C4.169 60.6356 3.17313 49.1571 3.50388 47.4938C3.83462 45.8306 5.32844 42.6719 8.47599 42.0044V42.0081Z" fill="#7E78C7"/>
<path d="M19.4125 139.636C19.4125 139.636 19.9941 138.389 22.1457 138.721C24.3011 139.053 24.5482 139.468 24.799 140.552C25.0498 141.635 25.7949 142.799 26.2892 143.047C26.7835 143.295 28.608 144.542 30.1019 144.794C31.592 145.042 31.7592 145.957 31.4285 146.373C31.0977 146.789 25.4605 147.121 24.2175 146.957C24.2175 146.957 19.9904 146.873 18.9982 146.541C18.006 146.209 19.3289 140.056 19.4125 139.64V139.636Z" fill="#3E3343"/>
<path d="M20.4088 110.449C20.4088 110.449 20.1616 106.955 23.8907 106.207C27.6198 105.46 28.1177 107.207 28.8628 110.449C29.6079 113.692 24.6358 140.136 24.6358 140.136C24.6358 140.136 20.4088 140.384 19.4165 139.636C19.4165 139.636 18.1735 121.924 18.9186 117.182C19.6637 112.441 20.4088 110.446 20.4088 110.446V110.449Z" fill="#3D4776"/>
<path d="M19.0816 140.052C19.0816 140.052 22.3128 140.967 25.0496 140.468L25.2968 138.556L18.998 138.141L19.0816 140.052Z" fill="#51598D"/>
<path d="M14.6914 90.8657C14.6914 90.8657 18.1733 102.093 20.783 107.582" stroke="#2A2E59" stroke-width="1.03" stroke-miterlimit="10"/>
<path d="M21.7754 109.825C21.7754 109.825 23.8871 108.578 26.0024 109.825" stroke="#2A2E59" stroke-width="1.03" stroke-miterlimit="10"/>
<path d="M21.4004 111.197C21.4004 111.197 23.1414 110.198 26.1253 112.32" stroke="#2A2E59" stroke-width="1.03" stroke-miterlimit="10"/>
<path d="M8.35254 108.326C8.35254 108.326 9.71914 107.079 12.8267 108.45" stroke="#2A2E59" stroke-width="1.03" stroke-miterlimit="10"/>
<path d="M9.34473 109.573C9.34473 109.573 11.3328 108.574 13.1974 110.073" stroke="#2A2E59" stroke-width="1.03" stroke-miterlimit="10"/>
<path d="M13.946 111.572L13.1973 137.017" stroke="#2A2E59" stroke-width="1.03" stroke-miterlimit="10"/>
<path d="M24.2207 90.2421C24.2207 90.2421 27.0375 91.9053 28.1969 89.2427" stroke="#2A2E59" stroke-width="1.03" stroke-miterlimit="10"/>
<path d="M27.0381 90.5742C27.0381 90.5742 28.3647 100.886 28.034 107.706" stroke="#2A2E59" stroke-width="1.03" stroke-miterlimit="10"/>
<path d="M3.50391 51.8198L4.83053 66.1252" stroke="#524B81" stroke-width="1.03" stroke-miterlimit="10"/>
<path d="M26.249 56.8096C26.249 56.8096 36.0697 63.9185 40.6674 62.547" stroke="#524B81" stroke-width="1.03" stroke-miterlimit="10"/>
<path d="M37.9346 55.0625C37.9346 55.0625 39.9227 56.1859 39.7991 58.8048" stroke="#524B81" stroke-width="1.03" stroke-miterlimit="10"/>
<path d="M37.4365 54.0666C37.4365 54.0666 39.5482 53.4429 40.7912 55.562" stroke="#524B81" stroke-width="1.03" stroke-miterlimit="10"/>
<path d="M25.8787 45.4585C25.8787 45.4585 20.6595 48.2014 24.1378 54.5662" stroke="#524B81" stroke-width="1.03" stroke-miterlimit="10"/>
<path d="M18.4824 37.1641C18.4824 37.1641 19.3511 39.4109 22.2733 39.0352" stroke="#E66657" stroke-width="1.03" stroke-miterlimit="10"/>
<path d="M46.6133 32.55L47.5873 31.6782C47.5873 31.6782 48.2707 31.6782 48.6341 32.1123" stroke="#E66657" stroke-width="1.03" stroke-miterlimit="10"/>
<path d="M47.7734 32.6925C47.7734 32.6305 49.1618 31.8828 49.1618 31.8828C49.1618 31.8828 50.4267 32.1928 50.612 32.8603C50.7974 33.5242 50.652 33.878 50.652 33.878" stroke="#E66657" stroke-width="1.03" stroke-miterlimit="10"/>
<path d="M49.4121 33.9C49.4739 33.8781 51.1712 33.9838 51.1712 33.9838C51.1712 33.9838 51.7928 34.3997 51.771 35.2094C51.7491 36.0191 51.4838 36.8216 51.4838 36.8216C51.4838 36.8216 50.8805 37.686 49.8446 37.6641" stroke="#E66657" stroke-width="1.03" stroke-miterlimit="10"/>
<path d="M50.3865 35.647C50.3865 35.647 50.5937 35.9789 50.3247 36.5807C50.0558 37.1826 49.7287 38.7619 48.5547 39.5023" stroke="#E66657" stroke-width="1.03" stroke-miterlimit="10"/>
<path d="M15.1236 24.814C12.6994 23.6286 9.5918 25.062 9.5918 25.062C9.5918 25.062 9.96616 23.4389 11.7035 22.8809" stroke="#A03A45" stroke-width="1.37" stroke-miterlimit="10"/>
<path d="M9.71875 26.0615C9.71875 26.0615 10.3403 25.9995 11.1471 27.247" stroke="#A03A45" stroke-width="1.37" stroke-miterlimit="10"/>
<path d="M20.4082 20.4697C20.4082 20.4697 23.4758 20.9694 23.5558 24.0442" stroke="#A03A45" stroke-width="1.37" stroke-miterlimit="10"/>
</g>
<defs>
<clipPath id="clip0_2252_3335">
<rect width="141" height="147" fill="white"/>
</clipPath>
</defs>
</svg>
