<svg width="32" height="32" viewBox="0 0 32 32" fill="none" xmlns="http://www.w3.org/2000/svg">
<g clip-path="url(#clip0_2141_2292)">
<path opacity="0.2" d="M26.721 5.37301C26.87 5.32954 27.0271 5.32137 27.1799 5.34914C27.3326 5.37691 27.4768 5.43986 27.601 5.53301C27.7252 5.62615 27.826 5.74694 27.8954 5.88579C27.9648 6.02465 28.001 6.17776 28.001 6.33301V23.6663C28.001 23.8216 27.9648 23.9747 27.8954 24.1135C27.826 24.2524 27.7252 24.3732 27.601 24.4663C27.4768 24.5595 27.3326 24.6224 27.1799 24.6502C27.0271 24.678 26.87 24.6698 26.721 24.6263L15.0002 21.2078V8.79155L26.721 5.37301Z" fill="#578BF2"/>
<path d="M28.001 6.33301V23.6663C28.001 23.8216 27.9648 23.9747 27.8954 24.1135C27.826 24.2524 27.7252 24.3732 27.601 24.4663C27.4768 24.5595 27.3326 24.6224 27.1799 24.6502C27.0271 24.678 26.87 24.6698 26.721 24.6263L4.72098 18.2097C4.51326 18.1491 4.3308 18.0228 4.20098 17.8497C4.07116 17.6766 4.00098 17.466 4.00098 17.2497V12.7497C4.00098 12.5333 4.07116 12.3228 4.20098 12.1497C4.3308 11.9766 4.51326 11.8503 4.72098 11.7897L26.721 5.37301C26.87 5.32954 27.0271 5.32137 27.1799 5.34914C27.3326 5.37691 27.4768 5.43986 27.601 5.53301C27.7252 5.62615 27.826 5.74694 27.8954 5.88579C27.9648 6.02465 28.001 6.17776 28.001 6.33301V6.33301Z" stroke="#578BF2" stroke-width="2" stroke-linecap="round" stroke-linejoin="round"/>
<path d="M9 19.4582V24.0001C9 24.2653 9.10536 24.5197 9.29289 24.7072C9.48043 24.8948 9.73478 25.0001 10 25.0001H14C14.2652 25.0001 14.5196 24.8948 14.7071 24.7072C14.8946 24.5197 15 24.2653 15 24.0001V8.79199" stroke="#578BF2" stroke-width="2" stroke-linecap="round" stroke-linejoin="round"/>
</g>
<defs>
<clipPath id="clip0_2141_2292">
<rect width="32" height="32" fill="white" transform="matrix(-1 0 0 1 32 0)"/>
</clipPath>
</defs>
</svg>
