<svg width="32" height="32" viewBox="0 0 32 32" fill="none" xmlns="http://www.w3.org/2000/svg">
<path opacity="0.2" d="M24.9995 15.001L22.2021 7.54139C22.1405 7.37707 22.0368 7.23186 21.9013 7.12035C21.7658 7.00884 21.6033 6.93495 21.4302 6.9061L3.99951 4.00098L6.90466 21.4317C6.93351 21.6048 7.00739 21.7672 7.1189 21.9027C7.23041 22.0382 7.37561 22.142 7.53991 22.2036L14.9995 25.001L24.9995 15.001ZM11.9999 14.5002C11.9999 14.0058 12.1466 13.5224 12.4213 13.1113C12.696 12.7002 13.0864 12.3798 13.5432 12.1905C14 12.0013 14.5027 11.9518 14.9877 12.0483C15.4726 12.1447 15.9181 12.3828 16.2677 12.7325C16.6173 13.0821 16.8554 13.5276 16.9519 14.0125C17.0484 14.4975 16.9989 15.0001 16.8096 15.457C16.6204 15.9138 16.3 16.3042 15.8889 16.5789C15.4777 16.8536 14.9944 17.0002 14.4999 17.0002C14.1716 17.0002 13.8465 16.9356 13.5432 16.81C13.2399 16.6843 12.9643 16.5002 12.7322 16.268C12.5 16.0359 12.3159 15.7603 12.1902 15.457C12.0646 15.1536 11.9999 14.8286 11.9999 14.5002Z" fill="#578BF2"/>
<path d="M12 14.5C12 15.8807 13.1193 17 14.5 17C15.8807 17 17 15.8807 17 14.5C17 13.1193 15.8807 12 14.5 12C13.1193 12 12 13.1193 12 14.5Z" stroke="#578BF2" stroke-width="2" stroke-linecap="round" stroke-linejoin="round"/>
<path d="M3.99977 4.00098L12.7324 12.7325" stroke="#578BF2" stroke-width="2" stroke-linecap="round" stroke-linejoin="round"/>
<path d="M3.99952 4.00098L6.90464 21.4317C6.93349 21.6048 7.00738 21.7672 7.11889 21.9027C7.2304 22.0382 7.3756 22.142 7.53991 22.2036L14.9995 25.001L24.9995 15.001L22.2022 7.54137C22.1405 7.37706 22.0368 7.23186 21.9013 7.12035C21.7658 7.00884 21.6033 6.93495 21.4302 6.9061L3.99952 4.00098Z" stroke="#578BF2" stroke-width="2" stroke-linecap="round" stroke-linejoin="round"/>
<path d="M14.9997 25.001L18.2926 28.2939C18.3854 28.3867 18.4956 28.4604 18.617 28.5106C18.7383 28.5609 18.8683 28.5868 18.9997 28.5868C19.131 28.5868 19.261 28.5609 19.3823 28.5106C19.5037 28.4604 19.6139 28.3867 19.7068 28.2939L28.2926 19.7081C28.4801 19.5205 28.5854 19.2662 28.5854 19.001C28.5854 18.7358 28.4801 18.4814 28.2926 18.2939L24.9997 15.001" stroke="#578BF2" stroke-width="2" stroke-linecap="round" stroke-linejoin="round"/>
</svg>
