<svg width="49" height="49" viewBox="0 0 49 49" fill="none" xmlns="http://www.w3.org/2000/svg">
<path fill-rule="evenodd" clip-rule="evenodd" d="M22.4707 34.5C22.4707 36.6217 21.6278 38.6566 20.1276 40.1569C18.6273 41.6571 16.5924 42.5 14.4707 42.5C12.349 42.5 10.3141 41.6571 8.81385 40.1569C7.31356 38.6566 6.4707 36.6217 6.4707 34.5C6.4707 30.08 14.4707 6.5 14.4707 6.5H18.4707L14.4707 26.5C16.5924 26.5 18.6273 27.3429 20.1276 28.8431C21.6278 30.3434 22.4707 32.3783 22.4707 34.5ZM42.4707 34.5C42.4707 36.6217 41.6278 38.6566 40.1276 40.1569C38.6273 41.6571 36.5924 42.5 34.4707 42.5C32.349 42.5 30.3141 41.6571 28.8138 40.1569C27.3136 38.6566 26.4707 36.6217 26.4707 34.5C26.4707 30.08 34.4707 6.5 34.4707 6.5H38.4707L34.4707 26.5C36.5924 26.5 38.6273 27.3429 40.1276 28.8431C41.6278 30.3434 42.4707 32.3783 42.4707 34.5Z" fill="#F4F4F4"/>
</svg>
