<svg width="32" height="32" viewBox="0 0 32 32" fill="none" xmlns="http://www.w3.org/2000/svg">
<path d="M19.2823 19.9001L19.2962 19.8809C19.3244 19.8424 19.3651 19.7875 19.4149 19.7218C19.5144 19.5908 19.6509 19.4163 19.7983 19.244C19.9451 19.0723 20.1052 18.8997 20.2518 18.7741C20.3249 18.7115 20.3979 18.6576 20.4668 18.6216C20.5325 18.5874 20.6116 18.5603 20.6889 18.5779C20.6889 18.5779 20.6889 18.5779 20.689 18.5779L20.6667 18.6754L19.2823 19.9001ZM19.2823 19.9001H14.7093H12.7177L12.7038 19.8809C12.6756 19.8424 12.6349 19.7875 12.5851 19.7218C12.4856 19.5908 12.3491 19.4163 12.2017 19.244C12.0549 19.0723 11.8948 18.8997 11.7482 18.7741C11.6751 18.7115 11.6021 18.6576 11.5332 18.6216C11.4675 18.5874 11.3884 18.5603 11.3111 18.5779L19.2823 19.9001ZM11.8985 21.3914L11.9284 21.4334H11.98H17.1233H20.0207H20.0723L20.1022 21.3913L20.4986 20.8338L20.5028 20.8287L20.503 20.8289L20.5074 20.8229L20.5335 20.7863C20.5336 20.7862 20.5336 20.7861 20.5337 20.786C20.67 20.5989 20.8133 20.417 20.9631 20.2406C20.9633 20.2405 20.9634 20.2403 20.9635 20.2402L20.9713 20.2313C22.397 20.6321 23.7871 21.2818 24.8397 22.0495C26.1131 22.9784 26.5667 23.827 26.5667 24.3801V26.5667H5.43333V24.3801C5.43333 23.827 5.88689 22.9784 7.16091 22.0495L7.16096 22.0495C8.21337 21.2813 9.60319 20.6323 11.0287 20.2315C11.1813 20.4116 11.3276 20.597 11.4674 20.7873L11.4938 20.8235L11.4938 20.8236L11.4954 20.8257L11.5009 20.8329L11.8985 21.3914Z" fill="#0E1F40" stroke="#0E1F40" stroke-width="0.2"/>
<path d="M21.2333 25.3335V25.4335H21.3333H22.6666H22.7666V25.3335V21.3335V21.2335H22.6666H21.3333H21.2333V21.3335V25.3335Z" fill="#0E1F40" stroke="#0E1F40" stroke-width="0.2"/>
<path d="M23.9999 24.1H24.0999V24V22.6667V22.5667H23.9999H19.9999H19.8999V22.6667V24V24.1H19.9999H23.9999ZM19.7004 14.3672C18.719 15.3486 17.3879 15.9 15.9999 15.9C14.612 15.9 13.2808 15.3486 12.2994 14.3672C11.318 13.3858 10.7666 12.0546 10.7666 10.6667C10.7666 9.2787 11.318 7.94758 12.2994 6.96614C13.2808 5.9847 14.612 5.43333 15.9999 5.43333C17.3879 5.43333 18.719 5.9847 19.7004 6.96614C20.6819 7.94758 21.2333 9.2787 21.2333 10.6667C21.2333 12.0546 20.6819 13.3858 19.7004 14.3672ZM15.9999 17.4333C19.7371 17.4333 22.7666 14.4039 22.7666 10.6667C22.7666 6.92944 19.7371 3.9 15.9999 3.9C12.2627 3.9 9.23325 6.92944 9.23325 10.6667C9.23325 14.4039 12.2627 17.4333 15.9999 17.4333Z" fill="#0E1F40" stroke="#0E1F40" stroke-width="0.2"/>
</svg>
