<svg width="114" height="35" viewBox="0 0 114 35" fill="none" xmlns="http://www.w3.org/2000/svg">
<path d="M17.1628 0.501953C7.71877 0.501953 0.0625 8.14123 0.0625 17.5646C0.0625 26.9883 7.71877 34.627 17.1628 34.627C26.6079 34.627 34.2633 26.9883 34.2633 17.5646C34.2633 8.14184 26.6081 0.501953 17.1628 0.501953ZM25.0049 25.1111C24.6986 25.6124 24.0411 25.7713 23.5387 25.4636C19.5238 23.0166 14.4694 22.4623 8.51699 23.8193C7.94339 23.9497 7.37163 23.5911 7.24094 23.0186C7.10964 22.446 7.46761 21.8755 8.04263 21.7451C14.5566 20.2602 20.1441 20.8996 24.6516 23.6482C25.154 23.9558 25.3132 24.6099 25.0049 25.1111ZM27.098 20.4652C26.712 21.0911 25.8911 21.2887 25.2642 20.9036C20.6677 18.0845 13.661 17.2681 8.22417 18.9148C7.51906 19.1273 6.77435 18.7308 6.56035 18.0285C6.34798 17.3249 6.74555 16.5833 7.44943 16.3693C13.6598 14.4891 21.3804 15.3999 26.6589 18.6365C27.2858 19.0216 27.4839 19.8405 27.098 20.4652ZM27.2776 15.6273C21.7663 12.3609 12.6733 12.0606 7.41125 13.6541C6.56627 13.9099 5.67269 13.4339 5.41662 12.5908C5.16055 11.7472 5.63716 10.8562 6.48275 10.5999C12.5232 8.77021 22.5647 9.12372 28.91 12.8823C29.6717 13.3324 29.9208 14.3119 29.4695 15.0692C29.0203 15.8276 28.0352 16.0776 27.2776 15.6273ZM46.5868 16.2532C43.6341 15.5507 43.1093 15.0576 43.1093 14.0215C43.1093 13.0427 44.0322 12.384 45.4065 12.384C46.7379 12.384 48.057 12.8842 49.4415 13.9139C49.4823 13.9451 49.5354 13.9575 49.5865 13.9494C49.6396 13.9416 49.6845 13.9133 49.7151 13.8707L51.1568 11.843C51.216 11.7595 51.1997 11.6443 51.12 11.5806C49.4721 10.2617 47.618 9.62047 45.4494 9.62047C42.2618 9.62047 40.034 11.5294 40.034 14.2607C40.034 17.1897 41.9555 18.2267 45.2758 19.0273C48.0999 19.6766 48.5777 20.2207 48.5777 21.193C48.5777 22.2708 47.6139 22.9412 46.062 22.9412C44.3386 22.9412 42.9316 22.3605 41.3593 21.0035C41.3205 20.9688 41.2674 20.9546 41.2184 20.9566C41.1653 20.9607 41.1183 20.9851 41.0856 21.0239L39.4684 22.9432C39.401 23.0247 39.4092 23.1429 39.4868 23.2122C41.3164 24.8422 43.5667 25.702 45.9967 25.702C49.4313 25.702 51.6509 23.8295 51.6509 20.9301C51.6571 18.4837 50.1889 17.1287 46.5929 16.2559L46.5868 16.2532ZM59.4228 13.3477C57.9342 13.3477 56.7131 13.9329 55.7043 15.132V13.7823C55.7043 13.6757 55.6185 13.5889 55.5124 13.5889H52.868C52.7618 13.5889 52.676 13.6757 52.676 13.7823V28.7787C52.676 28.8846 52.7618 28.9722 52.868 28.9722H55.5124C55.6185 28.9722 55.7043 28.8846 55.7043 28.7787V24.0455C56.7131 25.1722 57.9342 25.7244 59.4228 25.7244C62.1897 25.7244 64.9913 23.5993 64.9913 19.5367C64.9954 15.4732 62.1938 13.3475 59.4248 13.3475L59.4228 13.3477ZM61.9161 19.5367C61.9161 21.6045 60.6398 23.0492 58.8102 23.0492C57.003 23.0492 55.639 21.5393 55.639 19.5367C55.639 17.5338 57.003 16.0244 58.8102 16.0244C60.6092 16.0242 61.9161 17.5012 61.9161 19.5367ZM72.169 13.3477C68.6057 13.3477 65.8143 16.0853 65.8143 19.5809C65.8143 23.039 68.5873 25.7468 72.1261 25.7468C75.7016 25.7468 78.5012 23.0186 78.5012 19.5367C78.5012 16.0666 75.72 13.3477 72.169 13.3477ZM72.169 23.0695C70.274 23.0695 68.8446 21.5495 68.8446 19.5357C68.8446 17.5126 70.225 16.0446 72.1261 16.0446C74.0333 16.0446 75.4709 17.5639 75.4709 19.5799C75.4709 21.6025 74.0823 23.0695 72.169 23.0695ZM86.1097 13.5889H83.1998V10.6211C83.1998 10.5147 83.1141 10.4279 83.0079 10.4279H80.3635C80.2573 10.4279 80.1695 10.5147 80.1695 10.6211V13.5889H78.8994C78.7932 13.5889 78.7074 13.6757 78.7074 13.7823V16.0495C78.7074 16.1558 78.7932 16.2428 78.8994 16.2428H80.1695V22.1099C80.1695 24.4795 81.3518 25.6816 83.6858 25.6816C84.6333 25.6816 85.4195 25.486 86.1607 25.0663C86.222 25.0337 86.2588 24.9685 86.2588 24.8992V22.7394C86.2588 22.6742 86.224 22.6111 86.1669 22.5764C86.1097 22.5398 86.0382 22.5377 85.979 22.5683C85.4705 22.823 84.9784 22.9412 84.4271 22.9412C83.5797 22.9412 83.1998 22.5561 83.1998 21.6962V16.2438H86.1097C86.2159 16.2438 86.3016 16.157 86.3016 16.0505V13.7835C86.3057 13.677 86.2199 13.5902 86.1117 13.5902L86.1097 13.5889ZM96.2462 13.6006V13.236C96.2462 12.1637 96.6587 11.6855 97.5816 11.6855C98.133 11.6855 98.5761 11.7947 99.0723 11.9597C99.1335 11.9789 99.1969 11.9693 99.2459 11.9328C99.2969 11.8964 99.3255 11.8379 99.3255 11.776V9.55303C99.3255 9.46806 99.2724 9.39288 99.1887 9.36782C98.6659 9.21235 97.9962 9.05281 96.9915 9.05281C94.5513 9.05281 93.2587 10.4249 93.2587 13.0193V13.5775H91.9886C91.8824 13.5775 91.7946 13.6643 91.7946 13.7707V16.0495C91.7946 16.1558 91.8824 16.2428 91.9886 16.2428H93.2587V25.2904C93.2587 25.3984 93.3465 25.484 93.4527 25.484H96.0951C96.2033 25.484 96.289 25.3984 96.289 25.2904V16.2434H98.7578L102.54 25.2904C102.111 26.2399 101.688 26.4294 101.112 26.4294C100.647 26.4294 100.155 26.2908 99.6543 26.0158C99.6073 25.9913 99.5501 25.9873 99.5011 26.0015C99.4501 26.0199 99.4072 26.0565 99.3868 26.1054L98.4903 28.0676C98.4474 28.1613 98.4842 28.2693 98.574 28.3182C99.5093 28.8235 100.353 29.0395 101.396 29.0395C103.348 29.0395 104.428 28.1307 105.378 25.6898L109.964 13.8646C109.989 13.8051 109.981 13.7379 109.944 13.6851C109.909 13.6328 109.85 13.6012 109.787 13.6012H107.034C106.95 13.6012 106.877 13.6535 106.85 13.7308L104.03 21.7655L100.943 13.7255C100.914 13.6507 100.843 13.6012 100.763 13.6012L96.2462 13.6006ZM90.3693 13.5889H87.7249C87.6187 13.5889 87.5309 13.6757 87.5309 13.7823V25.2904C87.5309 25.3984 87.6187 25.484 87.7249 25.484H90.3693C90.4755 25.484 90.5633 25.3984 90.5633 25.2904V13.7831C90.5633 13.6766 90.4775 13.5889 90.3693 13.5889ZM89.0624 8.34865C88.0149 8.34865 87.1654 9.19463 87.1654 10.2397C87.1654 11.2853 88.0149 12.1323 89.0624 12.1323C90.11 12.1323 90.9574 11.2853 90.9574 10.2397C90.9574 9.19483 90.1079 8.34865 89.0624 8.34865ZM112.223 17.2893C111.177 17.2893 110.362 16.4508 110.362 15.4327C110.362 14.4145 111.187 13.5665 112.233 13.5665C113.278 13.5665 114.093 14.4048 114.093 15.4221C114.093 16.4403 113.268 17.2893 112.223 17.2893ZM112.233 13.7511C111.279 13.7511 110.559 14.5071 110.559 15.4327C110.559 16.3579 111.275 17.1037 112.223 17.1037C113.176 17.1037 113.897 16.3484 113.897 15.4221C113.897 14.4969 113.18 13.7511 112.233 13.7511ZM112.645 15.613L113.172 16.3482H112.727L112.253 15.6737H111.847V16.3482H111.475V14.3995H112.345C112.801 14.3995 113.099 14.6311 113.099 15.0211C113.101 15.3406 112.915 15.5358 112.647 15.613H112.645ZM112.331 14.7338H111.847V15.3502H112.331C112.572 15.3502 112.717 15.2322 112.717 15.0417C112.717 14.8412 112.572 14.7338 112.331 14.7338Z" fill="#CACACA"/>
</svg>
