<svg width="32" height="32" viewBox="0 0 32 32" fill="none" xmlns="http://www.w3.org/2000/svg">
<path fill-rule="evenodd" clip-rule="evenodd" d="M9.01453 10C10.0776 10 11.0971 9.57857 11.8488 8.82843C12.6005 8.07828 13.0228 7.06087 13.0228 6C13.0228 4.93913 12.6005 3.92172 11.8488 3.17157C11.0971 2.42143 10.0776 2 9.01453 2C7.95146 2 6.93194 2.42143 6.18023 3.17157C5.42853 3.92172 5.00623 4.93913 5.00623 6C5.00623 7.06087 5.42853 8.07828 6.18023 8.82843C6.93194 9.57857 7.95146 10 9.01453 10ZM13.113 22V21.94C13.113 19.96 14.2093 18.236 15.8286 17.336C15.4215 15.6731 14.4179 14.2166 13.0075 13.2422C11.5972 12.2677 9.87788 11.8427 8.1748 12.0477C6.47173 12.2526 4.90294 13.0732 3.76512 14.3543C2.6273 15.6354 1.99934 17.2881 2 19V21C2 21.2652 2.10558 21.5196 2.2935 21.7071C2.48143 21.8946 2.73631 22 3.00208 22H5.00623L5.89808 29.124C5.92836 29.3658 6.04608 29.5883 6.22912 29.7496C6.41217 29.9109 6.64794 29.9999 6.89213 30H11.1389C11.3831 29.9999 11.6189 29.9109 11.8019 29.7496C11.985 29.5883 12.1027 29.3658 12.133 29.124L13.0228 22H13.113ZM21.8952 17.374C21.7623 17.374 21.6349 17.4267 21.5409 17.5204C21.447 17.6142 21.3942 17.7414 21.3942 17.874V19.176H24.226V17.876C24.226 17.7434 24.1733 17.6162 24.0793 17.5224C23.9853 17.4287 23.8579 17.376 23.725 17.376L21.8952 17.374ZM18.3879 17.874V19.176C16.8588 19.176 15.6182 20.416 15.6182 21.942V27.236C15.6182 28.762 16.8588 30 18.3879 30H27.2303C28.7594 30 30 28.762 30 27.236V21.94C30 20.414 28.7614 19.176 27.2323 19.176V17.876C27.2323 16.9477 26.8628 16.0575 26.205 15.4011C25.5473 14.7447 24.6552 14.376 23.725 14.376H21.8952C20.965 14.376 20.0729 14.7447 19.4152 15.4011C18.7575 16.0575 18.3879 16.9477 18.3879 17.876V17.874Z" fill="#578BF2"/>
</svg>
